<svg width="91" height="79" viewBox="0 0 91 79" fill="none" xmlns="http://www.w3.org/2000/svg">
<path d="M80.1066 40.2172C80.1066 40.2172 85.2592 13.9517 58.8696 13.4494C58.8696 13.4494 56.9847 7.03816 45.2967 6.66589C33.6087 7.04407 31.7237 13.4494 31.7237 13.4494C5.33411 13.9517 10.4868 40.2172 10.4868 40.2172C-2.45395 59.6933 17.9144 74.5721 29.7265 71.8067C38.714 69.7031 45.2967 69.4904 45.2967 69.4904C45.2967 69.4904 51.8793 69.7031 60.8669 71.8067C72.679 74.5721 93.0473 59.6933 80.1066 40.2172Z" fill="#2B4162" stroke="#2B4162" stroke-width="11.818" stroke-linecap="round" stroke-linejoin="round"/>
<path d="M80.1066 40.2172C80.1066 40.2172 85.2592 13.9517 58.8696 13.4494C58.8696 13.4494 56.9847 7.03816 45.2967 6.66589C33.6087 7.04407 31.7237 13.4494 31.7237 13.4494C5.33411 13.9517 10.4868 40.2172 10.4868 40.2172C-2.45395 59.6933 17.9144 74.5721 29.7265 71.8067C38.714 69.7031 45.2967 69.4904 45.2967 69.4904C45.2967 69.4904 51.8793 69.7031 60.8669 71.8067C72.679 74.5721 93.0473 59.6933 80.1066 40.2172Z" stroke="white" stroke-width="4.7272" stroke-miterlimit="10"/>
<path d="M29.401 33V31.7049H31.3438V25.7056H32.1013L29.8409 27.0741L29.23 25.9255L31.7959 24.386H32.9077V31.7049H34.7283V33H29.401ZM39.061 33.1222C38.3849 33.1222 37.8107 32.9511 37.3382 32.609C36.8739 32.2588 36.5196 31.7537 36.2752 31.0939C36.039 30.4341 35.9209 29.6277 35.9209 28.6747C35.9209 27.7135 36.039 26.9071 36.2752 26.2554C36.5196 25.5957 36.8739 25.0988 37.3382 24.7648C37.8107 24.4308 38.3849 24.2638 39.061 24.2638C39.7453 24.2638 40.3195 24.4308 40.7838 24.7648C41.2563 25.0988 41.6106 25.5916 41.8468 26.2432C42.083 26.8949 42.2012 27.7013 42.2012 28.6625C42.2012 29.6155 42.079 30.426 41.8346 31.0939C41.5984 31.7537 41.2481 32.2588 40.7838 32.609C40.3195 32.9511 39.7453 33.1222 39.061 33.1222ZM39.061 31.8393C39.6149 31.8393 40.0222 31.5867 40.2829 31.0817C40.5517 30.5685 40.6861 29.7621 40.6861 28.6625C40.6861 27.571 40.5517 26.7808 40.2829 26.2921C40.0222 25.7952 39.6149 25.5468 39.061 25.5468C38.5153 25.5468 38.108 25.7952 37.8392 26.2921C37.5704 26.7808 37.436 27.575 37.436 28.6747C37.436 29.7662 37.5704 30.5685 37.8392 31.0817C38.108 31.5867 38.5153 31.8393 39.061 31.8393ZM46.3873 33.1222C45.7112 33.1222 45.1369 32.9511 44.6645 32.609C44.2002 32.2588 43.8459 31.7537 43.6015 31.0939C43.3653 30.4341 43.2472 29.6277 43.2472 28.6747C43.2472 27.7135 43.3653 26.9071 43.6015 26.2554C43.8459 25.5957 44.2002 25.0988 44.6645 24.7648C45.1369 24.4308 45.7112 24.2638 46.3873 24.2638C47.0715 24.2638 47.6458 24.4308 48.1101 24.7648C48.5825 25.0988 48.9369 25.5916 49.1731 26.2432C49.4093 26.8949 49.5274 27.7013 49.5274 28.6625C49.5274 29.6155 49.4052 30.426 49.1609 31.0939C48.9246 31.7537 48.5744 32.2588 48.1101 32.609C47.6458 32.9511 47.0715 33.1222 46.3873 33.1222ZM46.3873 31.8393C46.9412 31.8393 47.3485 31.5867 47.6091 31.0817C47.8779 30.5685 48.0123 29.7621 48.0123 28.6625C48.0123 27.571 47.8779 26.7808 47.6091 26.2921C47.3485 25.7952 46.9412 25.5468 46.3873 25.5468C45.8415 25.5468 45.4343 25.7952 45.1655 26.2921C44.8966 26.7808 44.7622 27.575 44.7622 28.6747C44.7622 29.7662 44.8966 30.5685 45.1655 31.0817C45.4343 31.5867 45.8415 31.8393 46.3873 31.8393ZM53.8113 33.3421L52.8094 32.7556L57.8434 24.0439L58.8331 24.6304L53.8113 33.3421ZM52.7605 29.53C52.3044 29.53 51.9134 29.4241 51.5876 29.2123C51.2617 29.0005 51.0133 28.6991 50.8422 28.3081C50.6712 27.909 50.5856 27.4366 50.5856 26.8908C50.5856 26.0762 50.7771 25.4368 51.1599 24.9725C51.5428 24.5001 52.0763 24.2638 52.7605 24.2638C53.2167 24.2638 53.6077 24.3697 53.9335 24.5815C54.2593 24.7933 54.5077 25.0947 54.6788 25.4857C54.8499 25.8767 54.9354 26.345 54.9354 26.8908C54.9354 27.4366 54.8499 27.909 54.6788 28.3081C54.5077 28.6991 54.2593 29.0005 53.9335 29.2123C53.6077 29.4241 53.2167 29.53 52.7605 29.53ZM52.7605 28.5036C53.0538 28.5036 53.2818 28.3733 53.4447 28.1126C53.6077 27.8438 53.6891 27.4366 53.6891 26.8908C53.6891 26.345 53.6077 25.9418 53.4447 25.6812C53.2818 25.4205 53.0538 25.2902 52.7605 25.2902C52.4673 25.2902 52.2392 25.4205 52.0763 25.6812C51.9134 25.9337 51.8319 26.3369 51.8319 26.8908C51.8319 27.4447 51.9134 27.852 52.0763 28.1126C52.2392 28.3733 52.4673 28.5036 52.7605 28.5036ZM58.8942 33.1222C58.438 33.1222 58.047 33.0163 57.7212 32.8045C57.3954 32.5927 57.1469 32.2913 56.9759 31.9003C56.8048 31.5012 56.7193 31.0288 56.7193 30.483C56.7193 29.6685 56.9107 29.029 57.2935 28.5647C57.6764 28.0923 58.2099 27.8561 58.8942 27.8561C59.3503 27.8561 59.7413 27.9619 60.0671 28.1737C60.3929 28.3855 60.6414 28.6869 60.8124 29.0779C60.9835 29.4689 61.069 29.9373 61.069 30.483C61.069 31.0288 60.9835 31.5012 60.8124 31.9003C60.6414 32.2913 60.3929 32.5927 60.0671 32.8045C59.7413 33.0163 59.3503 33.1222 58.8942 33.1222ZM58.8942 32.0958C59.1874 32.0958 59.4155 31.9655 59.5784 31.7049C59.7413 31.436 59.8228 31.0288 59.8228 30.483C59.8228 29.9373 59.7413 29.534 59.5784 29.2734C59.4155 29.0127 59.1874 28.8824 58.8942 28.8824C58.6009 28.8824 58.3728 29.0127 58.2099 29.2734C58.047 29.5259 57.9656 29.9291 57.9656 30.483C57.9656 31.0369 58.047 31.4442 58.2099 31.7049C58.3728 31.9655 58.6009 32.0958 58.8942 32.0958ZM27.4477 45.1222C26.8287 45.1222 26.2911 44.9959 25.8349 44.7434C25.3787 44.4909 25.0244 44.1325 24.7719 43.6682C24.5194 43.1958 24.3931 42.6418 24.3931 42.0065C24.3931 41.3711 24.5194 40.8213 24.7719 40.357C25.0244 39.8927 25.3787 39.5343 25.8349 39.2818C26.2911 39.0293 26.8287 38.903 27.4477 38.903C28.0668 38.903 28.6044 39.0293 29.0606 39.2818C29.5167 39.5343 29.871 39.8927 30.1236 40.357C30.3761 40.8213 30.5023 41.3711 30.5023 42.0065C30.5023 42.6418 30.3761 43.1958 30.1236 43.6682C29.871 44.1325 29.5167 44.4909 29.0606 44.7434C28.6044 44.9959 28.0668 45.1222 27.4477 45.1222ZM27.4477 43.9614C27.9039 43.9614 28.2704 43.7985 28.5474 43.4727C28.8243 43.1387 28.9628 42.65 28.9628 42.0065C28.9628 41.3548 28.8243 40.8702 28.5474 40.5525C28.2704 40.2267 27.9039 40.0638 27.4477 40.0638C26.9916 40.0638 26.625 40.2267 26.3481 40.5525C26.0711 40.8702 25.9326 41.3548 25.9326 42.0065C25.9326 42.65 26.0711 43.1387 26.3481 43.4727C26.625 43.7985 26.9916 43.9614 27.4477 43.9614ZM31.7629 45V39.0252H33.2536V40.467H33.1314C33.2454 39.9782 33.4694 39.6076 33.8034 39.3551C34.1374 39.0944 34.5813 38.9437 35.1352 38.903L35.5995 38.8664L35.6972 40.1615L34.8175 40.247C34.3206 40.2959 33.9459 40.4507 33.6934 40.7113C33.4409 40.9639 33.3147 41.3223 33.3147 41.7866V45H31.7629ZM39.238 47.3215C38.6841 47.3215 38.1628 47.2563 37.674 47.126C37.1935 47.0038 36.7699 46.8124 36.4033 46.5517L36.8432 45.4887C37.0713 45.6354 37.3116 45.7575 37.5641 45.8553C37.8166 45.9612 38.0732 46.0386 38.3338 46.0874C38.5945 46.1363 38.8552 46.1607 39.1158 46.1607C39.6616 46.1607 40.0689 46.0263 40.3377 45.7575C40.6146 45.4969 40.7531 45.1059 40.7531 44.5846V43.4849H40.863C40.7409 43.9003 40.4843 44.2343 40.0933 44.4868C39.7104 44.7312 39.2747 44.8534 38.7859 44.8534C38.2483 44.8534 37.7799 44.7312 37.3808 44.4868C36.9817 44.2343 36.6721 43.8841 36.4522 43.436C36.2323 42.988 36.1223 42.4667 36.1223 41.8721C36.1223 41.2775 36.2323 40.7602 36.4522 40.3204C36.6721 39.8723 36.9817 39.5262 37.3808 39.2818C37.7799 39.0293 38.2483 38.903 38.7859 38.903C39.2909 38.903 39.7308 39.0293 40.1055 39.2818C40.4883 39.5262 40.7368 39.852 40.8508 40.2593H40.7531V39.0252H42.2437V44.4013C42.2437 45.0448 42.1297 45.5824 41.9016 46.0141C41.6735 46.454 41.3355 46.7798 40.8875 46.9916C40.4395 47.2115 39.8896 47.3215 39.238 47.3215ZM39.2013 43.6926C39.6738 43.6926 40.0485 43.5297 40.3254 43.2039C40.6024 42.8781 40.7409 42.4341 40.7409 41.8721C40.7409 41.31 40.6024 40.8702 40.3254 40.5525C40.0485 40.2267 39.6738 40.0638 39.2013 40.0638C38.7289 40.0638 38.3542 40.2267 38.0773 40.5525C37.8003 40.8702 37.6618 41.31 37.6618 41.8721C37.6618 42.4341 37.8003 42.8781 38.0773 43.2039C38.3542 43.5297 38.7289 43.6926 39.2013 43.6926ZM45.7934 45.1222C45.3616 45.1222 44.9747 45.0407 44.6326 44.8778C44.2986 44.7068 44.0339 44.4787 43.8384 44.1936C43.6511 43.9085 43.5574 43.5867 43.5574 43.2283C43.5574 42.7885 43.6714 42.4423 43.8995 42.1898C44.1276 41.9291 44.4982 41.7418 45.0114 41.6277C45.5246 41.5137 46.2129 41.4567 47.0763 41.4567H47.6872V42.3364H47.0885C46.7057 42.3364 46.3839 42.3527 46.1233 42.3853C45.8626 42.4097 45.6508 42.4545 45.4879 42.5197C45.3331 42.5767 45.2191 42.6581 45.1458 42.764C45.0806 42.8699 45.048 43.0003 45.048 43.155C45.048 43.4238 45.1417 43.6438 45.3291 43.8148C45.5164 43.9859 45.7771 44.0714 46.111 44.0714C46.3798 44.0714 46.6161 44.0103 46.8197 43.8881C47.0315 43.7578 47.1985 43.5827 47.3207 43.3627C47.4428 43.1428 47.5039 42.8903 47.5039 42.6052V41.2001C47.5039 40.7928 47.4143 40.4996 47.2351 40.3204C47.0559 40.1412 46.7545 40.0515 46.331 40.0515C45.997 40.0515 45.6549 40.1045 45.3046 40.2104C44.9544 40.3081 44.6 40.4629 44.2416 40.6747L43.8018 39.6361C44.0135 39.4895 44.262 39.3632 44.5471 39.2574C44.8403 39.1433 45.1458 39.0578 45.4635 39.0008C45.7893 38.9356 46.0947 38.903 46.3798 38.903C46.9663 38.903 47.4469 38.9926 47.8216 39.1718C48.2045 39.351 48.4896 39.6239 48.6769 39.9905C48.8643 40.3489 48.9579 40.8132 48.9579 41.3834V45H47.5284V43.7293H47.6261C47.5691 44.0144 47.4551 44.2628 47.284 44.4746C47.1211 44.6782 46.9134 44.8371 46.6609 44.9511C46.4084 45.0652 46.1192 45.1222 45.7934 45.1222ZM50.5081 45V39.0252H51.9988V40.2226H51.8644C52.0436 39.7909 52.3205 39.4651 52.6952 39.2451C53.0781 39.0171 53.5098 38.903 53.9904 38.903C54.471 38.903 54.866 38.9926 55.1756 39.1718C55.4851 39.351 55.7172 39.6239 55.872 39.9905C56.0268 40.3489 56.1042 40.805 56.1042 41.3589V45H54.5769V41.4322C54.5769 41.1227 54.5361 40.8702 54.4547 40.6747C54.3814 40.4792 54.2633 40.3366 54.1003 40.247C53.9456 40.1493 53.746 40.1004 53.5016 40.1004C53.2084 40.1004 52.9518 40.1656 52.7319 40.2959C52.5119 40.4181 52.3409 40.5973 52.2187 40.8335C52.0965 41.0616 52.0354 41.3304 52.0354 41.6399V45H50.5081ZM57.5577 37.7423V36.2516H59.2682V37.7423H57.5577ZM57.6554 45V39.0252H59.1827V45H57.6554ZM63.531 45.1222C62.9038 45.1222 62.3581 44.9959 61.8938 44.7434C61.4295 44.4828 61.0711 44.1162 60.8186 43.6438C60.566 43.1713 60.4398 42.6174 60.4398 41.9821C60.4398 41.3467 60.566 40.8009 60.8186 40.3448C61.0711 39.8805 61.4295 39.5262 61.8938 39.2818C62.3581 39.0293 62.9038 38.903 63.531 38.903C63.9139 38.903 64.2926 38.9641 64.6673 39.0863C65.042 39.2085 65.3516 39.3795 65.5959 39.5995L65.1439 40.6625C64.9321 40.4751 64.6918 40.3326 64.423 40.2348C64.1623 40.1371 63.9098 40.0882 63.6654 40.0882C63.136 40.0882 62.7246 40.2552 62.4314 40.5892C62.1463 40.915 62.0037 41.3834 62.0037 41.9943C62.0037 42.597 62.1463 43.0736 62.4314 43.4238C62.7246 43.7659 63.136 43.937 63.6654 43.937C63.9017 43.937 64.1542 43.8881 64.423 43.7904C64.6918 43.6926 64.9321 43.546 65.1439 43.3505L65.5959 44.4257C65.3516 44.6375 65.038 44.8086 64.6551 44.9389C64.2804 45.0611 63.9057 45.1222 63.531 45.1222ZM30.4972 57.1222C29.87 57.1222 29.3243 56.9959 28.86 56.7434C28.3957 56.4828 28.0372 56.1162 27.7847 55.6438C27.5322 55.1713 27.406 54.6174 27.406 53.9821C27.406 53.3467 27.5322 52.8009 27.7847 52.3448C28.0372 51.8805 28.3957 51.5262 28.86 51.2818C29.3243 51.0293 29.87 50.903 30.4972 50.903C30.8801 50.903 31.2588 50.9641 31.6335 51.0863C32.0082 51.2085 32.3178 51.3795 32.5621 51.5995L32.11 52.6625C31.8983 52.4751 31.658 52.3326 31.3892 52.2348C31.1285 52.1371 30.876 52.0882 30.6316 52.0882C30.1022 52.0882 29.6908 52.2552 29.3976 52.5892C29.1125 52.915 28.9699 53.3834 28.9699 53.9943C28.9699 54.597 29.1125 55.0736 29.3976 55.4238C29.6908 55.7659 30.1022 55.937 30.6316 55.937C30.8678 55.937 31.1204 55.8881 31.3892 55.7904C31.658 55.6926 31.8983 55.546 32.11 55.3505L32.5621 56.4257C32.3178 56.6375 32.0042 56.8086 31.6213 56.9389C31.2466 57.0611 30.8719 57.1222 30.4972 57.1222ZM36.1044 57.1222C35.4853 57.1222 34.9477 56.9959 34.4916 56.7434C34.0354 56.4909 33.6811 56.1325 33.4286 55.6682C33.1761 55.1958 33.0498 54.6418 33.0498 54.0065C33.0498 53.3711 33.1761 52.8213 33.4286 52.357C33.6811 51.8927 34.0354 51.5343 34.4916 51.2818C34.9477 51.0293 35.4853 50.903 36.1044 50.903C36.7235 50.903 37.2611 51.0293 37.7172 51.2818C38.1734 51.5343 38.5277 51.8927 38.7802 52.357C39.0328 52.8213 39.159 53.3711 39.159 54.0065C39.159 54.6418 39.0328 55.1958 38.7802 55.6682C38.5277 56.1325 38.1734 56.4909 37.7172 56.7434C37.2611 56.9959 36.7235 57.1222 36.1044 57.1222ZM36.1044 55.9614C36.5606 55.9614 36.9271 55.7985 37.2041 55.4727C37.481 55.1387 37.6195 54.65 37.6195 54.0065C37.6195 53.3548 37.481 52.8702 37.2041 52.5525C36.9271 52.2267 36.5606 52.0638 36.1044 52.0638C35.6483 52.0638 35.2817 52.2267 35.0048 52.5525C34.7278 52.8702 34.5893 53.3548 34.5893 54.0065C34.5893 54.65 34.7278 55.1387 35.0048 55.4727C35.2817 55.7985 35.6483 55.9614 36.1044 55.9614ZM43.0969 57.1222C42.2986 57.1222 41.704 56.9226 41.313 56.5235C40.922 56.1243 40.7265 55.5419 40.7265 54.7763V52.1737H39.578V51.0252H40.7265V49.2413H42.2538V51.0252H44.0621V52.1737H42.2538V54.6907C42.2538 55.0817 42.3393 55.375 42.5104 55.5704C42.6814 55.7659 42.9584 55.8637 43.3412 55.8637C43.4553 55.8637 43.5734 55.8515 43.6956 55.827C43.8178 55.7945 43.944 55.7619 44.0743 55.7293L44.3065 56.8534C44.1599 56.9348 43.9725 57 43.7444 57.0489C43.5245 57.0977 43.3087 57.1222 43.0969 57.1222ZM47.4401 57.1222C46.6419 57.1222 46.0472 56.9226 45.6562 56.5235C45.2652 56.1243 45.0698 55.5419 45.0698 54.7763V52.1737H43.9212V51.0252H45.0698V49.2413H46.5971V51.0252H48.4054V52.1737H46.5971V54.6907C46.5971 55.0817 46.6826 55.375 46.8536 55.5704C47.0247 55.7659 47.3016 55.8637 47.6845 55.8637C47.7985 55.8637 47.9166 55.8515 48.0388 55.827C48.161 55.7945 48.2873 55.7619 48.4176 55.7293L48.6497 56.8534C48.5031 56.9348 48.3158 57 48.0877 57.0489C47.8678 57.0977 47.6519 57.1222 47.4401 57.1222ZM52.0575 57.1222C51.4385 57.1222 50.9009 56.9959 50.4447 56.7434C49.9886 56.4909 49.6342 56.1325 49.3817 55.6682C49.1292 55.1958 49.0029 54.6418 49.0029 54.0065C49.0029 53.3711 49.1292 52.8213 49.3817 52.357C49.6342 51.8927 49.9886 51.5343 50.4447 51.2818C50.9009 51.0293 51.4385 50.903 52.0575 50.903C52.6766 50.903 53.2142 51.0293 53.6704 51.2818C54.1265 51.5343 54.4808 51.8927 54.7334 52.357C54.9859 52.8213 55.1121 53.3711 55.1121 54.0065C55.1121 54.6418 54.9859 55.1958 54.7334 55.6682C54.4808 56.1325 54.1265 56.4909 53.6704 56.7434C53.2142 56.9959 52.6766 57.1222 52.0575 57.1222ZM52.0575 55.9614C52.5137 55.9614 52.8802 55.7985 53.1572 55.4727C53.4341 55.1387 53.5726 54.65 53.5726 54.0065C53.5726 53.3548 53.4341 52.8702 53.1572 52.5525C52.8802 52.2267 52.5137 52.0638 52.0575 52.0638C51.6014 52.0638 51.2348 52.2267 50.9579 52.5525C50.6809 52.8702 50.5425 53.3548 50.5425 54.0065C50.5425 54.65 50.6809 55.1387 50.9579 55.4727C51.2348 55.7985 51.6014 55.9614 52.0575 55.9614ZM56.3727 57V51.0252H57.8634V52.2226H57.729C57.9082 51.7909 58.1851 51.4651 58.5598 51.2451C58.9427 51.0171 59.3744 50.903 59.855 50.903C60.3356 50.903 60.7306 50.9926 61.0402 51.1718C61.3497 51.351 61.5818 51.6239 61.7366 51.9905C61.8914 52.3489 61.9688 52.805 61.9688 53.3589V57H60.4415V53.4322C60.4415 53.1227 60.4007 52.8702 60.3193 52.6747C60.246 52.4792 60.1278 52.3366 59.9649 52.247C59.8102 52.1493 59.6106 52.1004 59.3662 52.1004C59.073 52.1004 58.8164 52.1656 58.5965 52.2959C58.3765 52.4181 58.2055 52.5973 58.0833 52.8335C57.9611 53.0616 57.9 53.3304 57.9 53.6399V57H56.3727Z" fill="white"/>
</svg>
