<svg width="24" height="24" viewBox="0 0 24 24" fill="none" xmlns="http://www.w3.org/2000/svg">
<g id="icon/cart">
<path id="Vector" d="M4.30063 16.5346L3.16042 10.0978C2.98802 9.12453 2.90182 8.63791 3.17785 8.31896C3.45388 8 3.96121 8 4.97587 8H19.0242C20.0388 8 20.5461 8 20.8222 8.31896C21.0982 8.63791 21.012 9.12453 20.8396 10.0978L19.6994 16.5346C19.3215 18.6682 19.1325 19.7349 18.3609 20.3675C17.5895 21 16.4773 21 14.253 21H9.747C7.5227 21 6.41056 21 5.63904 20.3675C4.86752 19.7349 4.67856 18.6682 4.30063 16.5346Z" stroke="#2B4162" stroke-width="1.5"/>
<path id="Vector_2" d="M17 8C17 5.23857 14.7615 3 12 3C9.23857 3 7 5.23857 7 8" stroke="#2B4162" stroke-width="1.5"/>
</g>
</svg>
