<svg width="260" height="187" viewBox="0 0 260 187" fill="none" xmlns="http://www.w3.org/2000/svg">
<path opacity="0.8" d="M206.866 65.7764C199.608 65.7764 192.694 67.2642 186.403 69.9538C184.945 31.3473 153.573 0.5 115.079 0.5C77.2561 0.5 46.3097 30.279 43.8579 67.938C19.3114 71.7067 0.5 93.1571 0.5 119.057C0.5 147.613 23.3689 170.763 51.579 170.763C64.8133 170.763 76.8716 165.668 85.9452 157.31C91.1193 174.218 106.688 186.5 125.092 186.5C145.385 186.5 162.222 171.563 165.486 151.96C175.122 164.362 190.07 172.337 206.867 172.337C235.935 172.337 259.5 148.482 259.5 119.057C259.5 89.6312 235.934 65.7764 206.866 65.7764Z" fill="white"/>
</svg>
