<svg width="57" height="56" viewBox="0 0 57 56" fill="none" xmlns="http://www.w3.org/2000/svg">
<rect x="0.5" width="56" height="56" rx="28" fill="#6987F0"/>
<g clip-path="url(#clip0_92_726)">
<path d="M29.092 43.4364C28.7167 43.6115 28.2832 43.6115 27.9079 43.4364L25.9725 42.5332C18.6062 39.0956 14.1513 31.4427 14.7996 23.3396L15.1778 18.6112C15.236 17.8836 15.8474 17.3368 16.5703 17.2359C19.171 16.8725 20.9347 15.4038 21.5785 13.4496C21.8069 12.7564 22.394 12.1851 23.1238 12.1851H33.8762C34.6061 12.1851 35.1931 12.7564 35.4215 13.4497C36.0653 15.4038 37.829 16.8725 40.4297 17.2359C41.1526 17.3368 41.764 17.8836 41.8222 18.6112L42.2004 23.3396C42.8486 31.4427 38.3933 39.0958 31.027 42.5335L29.092 43.4364Z" stroke="white" stroke-width="1.68" stroke-miterlimit="10"/>
<path d="M28.4997 35.4977C27.4485 35.4977 20.6149 30.6354 20.6149 25.6417C20.6149 23.4661 22.3818 21.6993 24.5573 21.6993C27.7113 21.6993 28.4997 24.8532 28.4997 24.8532C28.4997 24.8532 29.2882 21.6993 32.4422 21.6993C34.6184 21.6993 36.3846 23.4661 36.3846 25.6417C36.3846 30.6354 29.5511 35.4977 28.4997 35.4977Z" stroke="white" stroke-width="1.68" stroke-miterlimit="10" stroke-linecap="round" stroke-linejoin="round"/>
</g>
<defs>
<clipPath id="clip0_92_726">
<rect width="33.6" height="33.6" fill="white" transform="translate(11.7 11.2)"/>
</clipPath>
</defs>
</svg>
