<svg width="252" height="182" viewBox="0 0 252 182" fill="none" xmlns="http://www.w3.org/2000/svg">
<path opacity="0.7" d="M200.031 64.0217C192.998 64.0217 186.297 65.4695 180.2 68.0868C178.788 30.518 148.385 0.5 111.079 0.5C74.425 0.5 44.4344 29.4784 42.0583 66.1251C18.2701 69.7925 0.0396729 90.6663 0.0396729 115.87C0.0396729 143.659 22.2022 166.186 49.5409 166.186C62.3664 166.186 74.0524 161.228 82.8457 153.095C87.8599 169.548 102.948 181.5 120.783 181.5C140.449 181.5 156.767 166.965 159.929 147.889C169.268 159.958 183.754 167.718 200.032 167.718C228.202 167.718 251.04 144.504 251.04 115.87C251.04 87.2351 228.202 64.0217 200.031 64.0217Z" fill="white"/>
</svg>
