<svg width="285" height="199" viewBox="0 0 285 199" fill="none" xmlns="http://www.w3.org/2000/svg">
<path opacity="0.7" d="M57.9177 64.1463C65.9044 64.1463 73.5128 65.8021 80.435 68.7954C82.039 25.83 116.561 -8.5 158.919 -8.5C200.539 -8.5 234.592 24.6411 237.29 66.5519C264.3 70.7462 285 94.6183 285 123.442C285 155.223 259.835 180.987 228.793 180.987C214.231 180.987 200.962 175.316 190.977 166.014C185.284 184.831 168.152 198.5 147.901 198.5C125.571 198.5 107.043 181.877 103.452 160.061C92.8483 173.863 76.3998 182.738 57.917 182.738C25.9307 182.738 0 156.19 0 123.442C0 90.6943 25.9314 64.1463 57.9177 64.1463Z" fill="white"/>
</svg>
