<svg width="57" height="56" viewBox="0 0 57 56" fill="none" xmlns="http://www.w3.org/2000/svg">
<rect x="0.5" width="56" height="56" rx="28" fill="#6987F0"/>
<g clip-path="url(#clip0_92_732)">
<path d="M43.0357 32.3317C42.6066 32.188 42.1473 32.1596 41.7037 32.2493L37.7867 32.9423C34.7212 33.4894 31.6139 33.768 28.5 33.7749C25.3861 33.768 22.2787 33.4894 19.2133 32.9423L15.2962 32.2493C14.8527 32.1595 14.3934 32.188 13.9643 32.3317C13.4551 32.516 13.015 32.8525 12.7038 33.2957C12.3926 33.7389 12.2254 34.2671 12.225 34.8086V39.0191C12.225 39.7159 12.5014 40.3841 12.9935 40.8773C13.4856 41.3705 14.1533 41.6484 14.85 41.6499H42.15C42.8467 41.6484 43.5144 41.3705 44.0065 40.8773C44.4986 40.3841 44.775 39.7159 44.775 39.0191V34.8086C44.7745 34.2671 44.6073 33.7389 44.2961 33.2957C43.9849 32.8525 43.5448 32.516 43.0357 32.3317ZM43.725 39.0191C43.7253 39.4375 43.5596 39.8388 43.2643 40.1352C42.9691 40.4315 42.5683 40.5986 42.15 40.5999H14.85C14.4316 40.5986 14.0309 40.4315 13.7356 40.1352C13.4404 39.8388 13.2747 39.4375 13.275 39.0191V34.8086C13.2751 34.4833 13.3754 34.166 13.5623 33.8997C13.7491 33.6334 14.0134 33.4311 14.3192 33.3203C14.4605 33.2714 14.6092 33.2476 14.7586 33.2499C14.8776 33.2507 14.9964 33.2616 15.1135 33.2825L19.0306 33.976C22.1563 34.534 25.3248 34.8181 28.5 34.8249C31.6751 34.8181 34.8436 34.534 37.9694 33.976L41.8875 33.2825C42.151 33.2258 42.4248 33.2389 42.6818 33.3203C42.9874 33.4313 43.2515 33.6336 43.4381 33.8999C43.6247 34.1662 43.7249 34.4835 43.725 34.8086V39.0191Z" fill="white" stroke="white" stroke-width="0.7"/>
<path d="M25.7103 13.3898H29.736L25.7103 17.7705H29.736" stroke="white" stroke-width="1.68" stroke-miterlimit="10" stroke-linecap="round" stroke-linejoin="round"/>
<path d="M21.3835 23.541H27.2084L21.3835 29.8798H27.2084" stroke="white" stroke-width="1.68" stroke-miterlimit="10" stroke-linecap="round" stroke-linejoin="round"/>
<path d="M32.6405 22.4971H36.6661L32.6405 26.8778H36.6661" stroke="white" stroke-width="1.68" stroke-miterlimit="10" stroke-linecap="round" stroke-linejoin="round"/>
</g>
<defs>
<clipPath id="clip0_92_732">
<rect width="33.6" height="33.6" fill="white" transform="translate(11.7 11.2)"/>
</clipPath>
</defs>
</svg>
