<svg width="335" height="237" viewBox="0 0 335 237" fill="none" xmlns="http://www.w3.org/2000/svg">
<path opacity="0.4" d="M68.3755 83.1748C77.7354 83.1748 86.6518 85.0705 94.7641 88.4976C96.644 39.3054 137.101 0 186.742 0C235.517 0 275.425 37.9441 278.587 85.929C310.241 90.7311 334.5 118.063 334.5 151.064C334.5 187.451 305.009 216.949 268.63 216.949C251.563 216.949 236.013 210.456 224.312 199.806C217.64 221.35 197.562 237 173.83 237C147.66 237 125.947 217.968 121.739 192.99C109.312 208.792 90.0353 218.953 68.3747 218.953C30.8889 218.953 0.5 188.558 0.5 151.064C0.5 113.57 30.8898 83.1748 68.3755 83.1748Z" fill="#CAD6FE"/>
</svg>
