<svg width="1440" height="31" viewBox="0 0 1440 31" fill="none" xmlns="http://www.w3.org/2000/svg">
<path d="M61.7031 0.861992C21.2656 0.861992 21.2656 31 -19.1719 31V-101H627.828V31C587.391 31 587.391 0.861992 546.953 0.861992C506.516 0.861992 506.516 31 466.078 31C425.641 31 425.641 0.861992 385.203 0.861992C344.766 0.861992 344.766 31 304.328 31C263.891 31 263.891 0.861992 223.453 0.861992C183.016 0.861992 183.016 31 142.578 31C102.141 31 102.141 0.861992 61.7031 0.861992Z" fill="#F2F5FF"/>
<path d="M708.703 0.861992C668.266 0.861992 668.266 31 627.828 31V-101H1274.83V31C1234.39 31 1234.39 0.861992 1193.95 0.861992C1153.52 0.861992 1153.52 31 1113.08 31C1072.64 31 1072.64 0.861992 1032.2 0.861992C991.766 0.861992 991.766 31 951.328 31C910.891 31 910.891 0.861992 870.453 0.861992C830.016 0.861992 830.016 31 789.578 31C749.141 31 749.141 0.861992 708.703 0.861992Z" fill="#F2F5FF"/>
<path d="M1355.7 0.861992C1315.27 0.861992 1315.27 31 1274.83 31V-101H1921.83V31C1881.39 31 1881.39 0.861992 1840.95 0.861992C1800.52 0.861992 1800.52 31 1760.08 31C1719.64 31 1719.64 0.861992 1679.2 0.861992C1638.77 0.861992 1638.77 31 1598.33 31C1557.89 31 1557.89 0.861992 1517.45 0.861992C1477.02 0.861992 1477.02 31 1436.58 31C1396.14 31 1396.14 0.861992 1355.7 0.861992Z" fill="#F2F5FF"/>
</svg>
