<?xml version="1.0" encoding="utf-8"?>
<!-- Generator: Adobe Illustrator 25.0.0, SVG Export Plug-In . SVG Version: 6.00 Build 0)  -->
<svg version="1.1" id="Layer_1" xmlns="http://www.w3.org/2000/svg" xmlns:xlink="http://www.w3.org/1999/xlink" x="0px" y="0px"
	 viewBox="0 0 1440 31" style="enable-background:new 0 0 1440 31;" xml:space="preserve">
<style type="text/css">
	.st0{fill:#F2F5FF;}
</style>
<path class="st0" d="M1274.8-101h-647h-647V31C21.3,31,21.3,0.9,61.7,0.9c40.4,0,40.4,30.1,80.9,30.1C183,31,183,0.9,223.5,0.9
	c40.4,0,40.4,30.1,80.9,30.1c40.4,0,40.4-30.1,80.9-30.1c40.4,0,40.4,30.1,80.9,30.1c40.4,0,40.4-30.1,80.9-30.1
	c40.4,0,40.4,30.1,80.9,30.1c40.4,0,40.4-30.1,80.9-30.1c40.4,0,40.4,30.1,80.9,30.1C830,31,830,0.9,870.5,0.9
	c40.4,0,40.4,30.1,80.9,30.1c40.4,0,40.4-30.1,80.9-30.1c40.4,0,40.4,30.1,80.9,30.1c40.4,0,40.4-30.1,80.9-30.1
	c40.4,0,40.4,30.1,80.9,30.1c40.4,0,40.4-30.1,80.9-30.1c40.4,0,40.4,30.1,80.9,30.1c40.4,0,40.4-30.1,80.9-30.1
	c40.4,0,40.4,30.1,80.9,30.1c40.4,0,40.4-30.1,80.9-30.1c40.4,0,40.4,30.1,80.9,30.1c40.4,0,40.4-30.1,80.9-30.1
	c40.4,0,40.4,30.1,80.9,30.1v-132H1274.8z"/>
</svg>
