<svg width="119" height="69" viewBox="0 0 119 69" fill="none" xmlns="http://www.w3.org/2000/svg">
<path opacity="0.2" d="M19.7123 24.2154C22.4306 24.2154 25.0201 24.7674 27.3761 25.7651C27.9221 11.4433 39.6715 0 54.0883 0C68.2535 0 79.8435 11.047 80.7617 25.0173C89.9548 26.4154 97 34.3728 97 43.9807C97 54.5744 88.4352 63.1622 77.87 63.1622C72.9136 63.1622 68.3975 61.272 64.9993 58.1714C63.0615 64.4437 57.2307 69 50.3382 69C42.7381 69 36.4322 63.459 35.21 56.1869C31.601 60.7877 26.0028 63.7459 19.7121 63.7459C8.82553 63.7459 0 54.8966 0 43.9807C0 33.0648 8.82578 24.2154 19.7123 24.2154Z" fill="#CAD6FE"/>
<path d="M98.4844 23.3761C99.4415 22.8992 100.415 22.5178 101.395 22.2218C103.076 21.7138 104.198 23.7317 103.447 25.3192C101.534 29.3591 101.325 33.9209 103.318 37.9207C105.311 41.9216 109.08 44.5012 113.459 45.4058C115.178 45.761 116.114 47.8706 114.696 48.9072C113.869 49.5123 112.977 50.0604 112.019 50.5379C103.467 54.7992 93.5045 52.1733 89.7671 44.6729C86.0297 37.1725 89.9326 27.6374 98.4844 23.3761Z" fill="#F9CD39"/>
</svg>
