<svg width="133" height="78" viewBox="0 0 133 78" fill="none" xmlns="http://www.w3.org/2000/svg">
<path opacity="0.2" d="M38.7986 27.13C42.1106 27.13 45.2656 27.7484 48.1362 28.8662C48.8013 12.8206 63.1168 0 80.6821 0C97.9411 0 112.062 12.3766 113.181 28.0284C124.382 29.5947 132.966 38.5099 132.966 49.2742C132.966 61.1429 122.53 70.7644 109.658 70.7644C103.619 70.7644 98.1165 68.6467 93.9761 65.1729C91.6151 72.2002 84.5109 77.3048 76.1131 77.3048C66.8531 77.3048 59.1701 71.0969 57.681 62.9495C53.2837 68.104 46.4629 71.4184 38.7983 71.4184C25.5342 71.4184 14.7812 61.504 14.7812 49.2742C14.7812 37.0444 25.5345 27.13 38.7986 27.13Z" fill="#CAD6FE"/>
<path d="M15.4292 43.0049L18.2481 47.3158C18.5142 47.7225 18.8733 48.0578 19.2948 48.2929C19.7162 48.528 20.1871 48.6557 20.6671 48.6651L25.7524 48.7652C26.1666 48.7734 26.5708 48.8989 26.9192 49.1277C27.2676 49.3566 27.5464 49.6795 27.7241 50.0601C27.9017 50.4407 27.9712 50.8638 27.9246 51.2815C27.8779 51.6991 27.7171 52.0948 27.4602 52.4237L24.3037 56.4631C24.006 56.8441 23.8042 57.2932 23.7158 57.7717C23.6274 58.2502 23.655 58.7438 23.7962 59.2101L25.2932 64.1517C25.4152 64.5543 25.4238 64.983 25.3182 65.3894C25.2127 65.7958 24.997 66.1637 24.6958 66.4514C24.3945 66.7391 24.0197 66.9352 23.6136 67.0174C23.2075 67.0996 22.7863 67.0648 22.3978 66.9167L17.6293 65.1003C17.1791 64.9288 16.695 64.871 16.2188 64.9317C15.7425 64.9925 15.2885 65.1699 14.8957 65.4489L10.7356 68.4039C10.3967 68.6448 9.99786 68.7842 9.58407 68.8065C9.17034 68.8288 8.75825 68.7331 8.39444 68.5303C8.03062 68.3273 7.72958 68.0254 7.52539 67.6585C7.3212 67.2916 7.22201 66.8744 7.23903 66.4541L7.4479 61.2949C7.46761 60.8081 7.37041 60.3234 7.16472 59.8823C6.95903 59.4414 6.65102 59.0572 6.2672 58.7632L2.19795 55.6453C1.8668 55.3915 1.61182 55.049 1.46181 54.6565C1.3118 54.264 1.27273 53.8372 1.34903 53.4242C1.42534 53.0113 1.61396 52.6286 1.89361 52.3196C2.17324 52.0106 2.53273 51.7875 2.93148 51.6755L7.82894 50.3023C8.29122 50.1727 8.71505 49.9309 9.06398 49.5976C9.41284 49.2643 9.6764 48.8495 9.8318 48.3891L11.4786 43.5087C11.6126 43.111 11.8537 42.7597 12.1747 42.4946C12.4957 42.2295 12.8837 42.0612 13.2948 42.0088C13.7059 41.9564 14.1237 42.0219 14.501 42.1979C14.8782 42.374 15.1997 42.6535 15.4292 43.0049Z" fill="#F9CD39"/>
</svg>
