<svg width="40" height="41" viewBox="0 0 40 41" fill="none" xmlns="http://www.w3.org/2000/svg">
<path d="M19.9997 9.42822C17.1023 9.42822 16.7397 9.44156 15.6023 9.49222C14.4663 9.54556 13.693 9.72422 13.013 9.98822C12.3012 10.256 11.6564 10.676 11.1237 11.2189C10.5303 11.8109 10.1637 12.4056 9.89301 13.1082C9.62901 13.7882 9.44901 14.5616 9.39701 15.6976C9.34367 16.8349 9.33301 17.1976 9.33301 20.0949C9.33301 22.9922 9.34634 23.3549 9.39701 24.4922C9.45034 25.6269 9.62901 26.4016 9.89301 27.0816C10.165 27.7816 10.5303 28.3789 11.1237 28.9709C11.7157 29.5629 12.3103 29.9309 13.013 30.2016C13.693 30.4642 14.4663 30.6456 15.6023 30.6976C16.7397 30.7509 17.1023 30.7616 19.9997 30.7616C22.897 30.7616 23.2597 30.7482 24.397 30.6976C25.5317 30.6442 26.3063 30.4642 26.9863 30.2016C27.6979 29.9332 28.3426 29.5133 28.8757 28.9709C29.4677 28.3789 29.8357 27.7842 30.1063 27.0816C30.369 26.4016 30.5503 25.6282 30.6023 24.4922C30.6557 23.3549 30.6663 22.9922 30.6663 20.0949C30.6663 17.1976 30.653 16.8349 30.6023 15.6976C30.549 14.5629 30.369 13.7869 30.1063 13.1082C29.8382 12.3965 29.4183 11.7518 28.8757 11.2189C28.3435 10.6754 27.6986 10.2552 26.9863 9.98822C26.3063 9.72422 25.533 9.54422 24.397 9.49222C23.2597 9.43889 22.897 9.42822 19.9997 9.42822ZM19.9997 11.3482C22.8463 11.3482 23.1863 11.3616 24.3103 11.4109C25.3503 11.4602 25.9157 11.6322 26.2903 11.7802C26.7903 11.9736 27.1437 12.2042 27.5183 12.5762C27.8917 12.9496 28.1223 13.3042 28.3157 13.8042C28.461 14.1789 28.6357 14.7442 28.6823 15.7842C28.733 16.9096 28.745 17.2469 28.745 20.0949C28.745 22.9429 28.7317 23.2816 28.6783 24.4056C28.625 25.4456 28.4517 26.0109 28.305 26.3856C28.105 26.8856 27.8783 27.2389 27.505 27.6136C27.133 27.9869 26.773 28.2176 26.2783 28.4109C25.905 28.5562 25.3317 28.7309 24.2917 28.7776C23.1597 28.8282 22.8263 28.8402 19.973 28.8402C17.1197 28.8402 16.7863 28.8269 15.653 28.7736C14.613 28.7202 14.0397 28.5469 13.6663 28.4002C13.1597 28.2002 12.813 27.9736 12.4397 27.6002C12.0829 27.2577 11.8092 26.8381 11.6397 26.3736C11.493 26.0002 11.321 25.4269 11.2663 24.3869C11.2263 23.2669 11.213 22.9216 11.213 20.0816C11.213 17.2416 11.2263 16.8949 11.2663 15.7616C11.321 14.7216 11.493 14.1482 11.6397 13.7749C11.8263 13.2682 12.0663 12.9216 12.4397 12.5482C12.813 12.1749 13.1597 11.9349 13.6663 11.7482C14.0397 11.6016 14.5997 11.4282 15.6397 11.3749C16.773 11.3349 17.1063 11.3216 19.9597 11.3216L19.9997 11.3482ZM19.9997 14.6176C19.2733 14.6062 18.5519 14.7395 17.8775 15.0096C17.2031 15.2798 16.5892 15.6814 16.0715 16.1911C15.5538 16.7007 15.1427 17.3083 14.862 17.9784C14.5814 18.6485 14.4369 19.3677 14.4369 20.0942C14.4369 20.8207 14.5814 21.5399 14.862 22.21C15.1427 22.8801 15.5538 23.4877 16.0715 23.9974C16.5892 24.5071 17.2031 24.9087 17.8775 25.1788C18.5519 25.4489 19.2733 25.5822 19.9997 25.5709C21.4374 25.5485 22.8086 24.9616 23.8174 23.9369C24.8261 22.9123 25.3916 21.5321 25.3916 20.0942C25.3916 18.6563 24.8261 17.2761 23.8174 16.2515C22.8086 15.2269 21.4374 14.64 19.9997 14.6176ZM19.9997 23.6509C19.0566 23.6509 18.1521 23.2762 17.4852 22.6094C16.8183 21.9425 16.4437 21.038 16.4437 20.0949C16.4437 19.1518 16.8183 18.2473 17.4852 17.5804C18.1521 16.9135 19.0566 16.5389 19.9997 16.5389C20.9428 16.5389 21.8473 16.9135 22.5141 17.5804C23.181 18.2473 23.5557 19.1518 23.5557 20.0949C23.5557 21.038 23.181 21.9425 22.5141 22.6094C21.8473 23.2762 20.9428 23.6509 19.9997 23.6509ZM26.973 14.4016C26.9728 14.741 26.8378 15.0665 26.5976 15.3065C26.3575 15.5464 26.0318 15.6811 25.6923 15.6809C25.3529 15.6807 25.0274 15.5457 24.7874 15.3055C24.5475 15.0653 24.4128 14.7397 24.413 14.4002C24.4132 14.0607 24.5482 13.7352 24.7884 13.4953C25.0286 13.2554 25.3542 13.1207 25.6937 13.1209C26.0332 13.1211 26.3587 13.2561 26.5986 13.4963C26.8385 13.7364 26.9732 14.0621 26.973 14.4016Z" fill="white"/>
</svg>
