<svg width="38" height="25" viewBox="0 0 38 25" fill="none" xmlns="http://www.w3.org/2000/svg">
<g id="Item &#226;&#134;&#146; Img">
<path id="Vector" opacity="0.07" d="M35 0.0952148H3C1.3 0.0952148 0 1.39521 0 3.09521V21.0952C0 22.7952 1.4 24.0952 3 24.0952H35C36.7 24.0952 38 22.7952 38 21.0952V3.09521C38 1.39521 36.6 0.0952148 35 0.0952148Z" fill="black"/>
<path id="Vector_2" d="M35 1.09521C36.1 1.09521 37 1.99521 37 3.09521V21.0952C37 22.1952 36.1 23.0952 35 23.0952H3C1.9 23.0952 1 22.1952 1 21.0952V3.09521C1 1.99521 1.9 1.09521 3 1.09521H35Z" fill="#006FCF"/>
<path id="Vector_3" d="M22.012 20.0314V11.6104L37 11.6234V13.9494L35.268 15.8014L37 17.6684V20.0434H34.234L32.764 18.4214L31.304 20.0494L22.012 20.0294V20.0314Z" fill="white"/>
<path id="Vector_4" d="M23.0129 19.1071V12.5371H28.5849V14.0501H24.8169V15.0781H28.4949V16.5661H24.8169V17.5761H28.5849V19.1071H23.0129Z" fill="#006FCF"/>
<path id="Vector_5" d="M28.557 19.1071L31.64 15.8181L28.557 12.5361H30.943L32.827 14.6191L34.717 12.5371H37V12.5881L33.983 15.8181L37 19.0151V19.1081H34.693L32.776 17.0051L30.878 19.1091H28.557V19.1071Z" fill="#006FCF"/>
<path id="Vector_6" d="M22.71 4.13525H26.324L27.593 7.01625V4.13525H32.053L32.823 6.29425L33.594 4.13525H37V12.5563H19L22.71 4.13525Z" fill="white"/>
<path id="Vector_7" d="M23.395 5.05029L20.479 11.6163H22.479L23.029 10.3013H26.009L26.559 11.6163H28.609L25.705 5.05029H23.395ZM23.645 8.82729L24.52 6.73729L25.393 8.82729H23.645Z" fill="#006FCF"/>
<path id="Vector_8" d="M28.5811 11.6153V5.04834L31.3921 5.05834L32.8401 9.09534L34.2961 5.04934H37.0001V11.6143L35.2601 11.6303V7.12034L33.6161 11.6143H32.0261L30.3501 7.10534V11.6153H28.5821H28.5811Z" fill="#006FCF"/>
</g>
</svg>
