<svg width="38" height="25" viewBox="0 0 38 25" fill="none" xmlns="http://www.w3.org/2000/svg">
<g id="Item &#226;&#134;&#146; Img">
<path id="Vector" opacity="0.07" d="M35 0.0952148H3C1.3 0.0952148 0 1.39521 0 3.09521V21.0952C0 22.7952 1.4 24.0952 3 24.0952H35C36.7 24.0952 38 22.7952 38 21.0952V3.09521C38 1.39521 36.6 0.0952148 35 0.0952148Z" fill="black"/>
<path id="Vector_2" d="M35 1.09521C36.1 1.09521 37 1.99521 37 3.09521V21.0952C37 22.1952 36.1 23.0952 35 23.0952H3C1.9 23.0952 1 22.1952 1 21.0952V3.09521C1 1.99521 1.9 1.09521 3 1.09521H35Z" fill="white"/>
<path id="Vector_3" d="M3.57 7.25525H2V12.7553H3.57C4.4 12.7553 5 12.5553 5.53 12.1253C6.16 11.6053 6.53 10.8253 6.53 10.0153C6.52 8.38525 5.31 7.25525 3.57 7.25525ZM4.83 11.3953C4.49 11.6953 4.06 11.8353 3.36 11.8353H3.07V8.19525H3.36C4.05 8.19525 4.47 8.31525 4.83 8.63525C5.2 8.96525 5.42 9.47525 5.42 10.0053C5.42 10.5353 5.2 11.0653 4.83 11.3953ZM7.02 7.25525H8.09V12.7553H7.02V7.25525ZM10.71 9.36525C10.07 9.12525 9.88 8.96525 9.88 8.67525C9.88 8.32525 10.22 8.06525 10.68 8.06525C11 8.06525 11.27 8.19525 11.54 8.51525L12.1 7.78525C11.64 7.38525 11.09 7.17525 10.48 7.17525C9.51 7.17525 8.76 7.85525 8.76 8.75525C8.76 9.51525 9.11 9.90525 10.11 10.2653C10.53 10.4153 10.74 10.5153 10.85 10.5753C11.06 10.7153 11.17 10.9153 11.17 11.1453C11.17 11.5953 10.82 11.9253 10.34 11.9253C9.83 11.9253 9.42 11.6653 9.17 11.1953L8.48 11.8653C8.97 12.5953 9.57 12.9153 10.38 12.9153C11.49 12.9153 12.28 12.1753 12.28 11.1053C12.3 10.2153 11.93 9.81525 10.71 9.36525ZM12.63 10.0153C12.63 11.6353 13.9 12.8853 15.53 12.8853C15.99 12.8853 16.39 12.7953 16.87 12.5653V11.3053C16.44 11.7353 16.06 11.9053 15.58 11.9053C14.5 11.9053 13.73 11.1253 13.73 10.0053C13.73 8.94525 14.52 8.11525 15.53 8.11525C16.04 8.11525 16.43 8.29525 16.87 8.73525V7.47525C16.4 7.23525 16.01 7.13525 15.55 7.13525C13.94 7.13525 12.63 8.41525 12.63 10.0153ZM25.39 10.9553L23.92 7.25525H22.75L25.08 12.8953H25.66L28.03 7.25525H26.87L25.39 10.9553ZM28.52 12.7553H31.56V11.8253H29.59V10.3453H31.49V9.41525H29.59V8.19525H31.56V7.25525H28.52V12.7553ZM35.81 8.88525C35.81 7.85525 35.1 7.26525 33.86 7.26525H32.27V12.7653H33.34V10.5553H33.48L34.96 12.7653H36.28L34.55 10.4453C35.36 10.2753 35.81 9.72525 35.81 8.88525ZM33.65 9.79525H33.34V8.12525H33.67C34.34 8.12525 34.7 8.40525 34.7 8.94525C34.7 9.49525 34.34 9.79525 33.65 9.79525Z" fill="#231F20"/>
<path id="Vector_4" d="M20.16 12.9553C20.9374 12.9553 21.6829 12.6465 22.2325 12.0968C22.7822 11.5471 23.091 10.8016 23.091 10.0243C23.091 9.24691 22.7822 8.5014 22.2325 7.95173C21.6829 7.40206 20.9374 7.09326 20.16 7.09326C19.3827 7.09326 18.6371 7.40206 18.0875 7.95173C17.5378 8.5014 17.229 9.24691 17.229 10.0243C17.229 10.8016 17.5378 11.5471 18.0875 12.0968C18.6371 12.6465 19.3827 12.9553 20.16 12.9553Z" fill="url(#paint0_linear_92_1068)"/>
<path id="Vector_5" opacity="0.65" d="M20.16 12.9553C20.9374 12.9553 21.6829 12.6465 22.2325 12.0968C22.7822 11.5471 23.091 10.8016 23.091 10.0243C23.091 9.24691 22.7822 8.5014 22.2325 7.95173C21.6829 7.40206 20.9374 7.09326 20.16 7.09326C19.3827 7.09326 18.6371 7.40206 18.0875 7.95173C17.5378 8.5014 17.229 9.24691 17.229 10.0243C17.229 10.8016 17.5378 11.5471 18.0875 12.0968C18.6371 12.6465 19.3827 12.9553 20.16 12.9553Z" fill="url(#paint1_linear_92_1068)"/>
<path id="Vector_6" d="M36.57 7.60117C36.57 7.50117 36.5 7.45117 36.39 7.45117H36.23V7.93117H36.35V7.74117L36.49 7.93117H36.63L36.47 7.73117C36.53 7.72117 36.57 7.67117 36.57 7.60117ZM36.37 7.67117H36.35V7.54117H36.37C36.43 7.54117 36.46 7.56117 36.46 7.60117C36.46 7.65117 36.43 7.67117 36.37 7.67117Z" fill="#231F20"/>
<path id="Vector_7" d="M36.41 7.271C36.18 7.271 35.99 7.461 35.99 7.691C35.99 7.921 36.18 8.111 36.41 8.111C36.64 8.111 36.83 7.921 36.83 7.691C36.83 7.461 36.64 7.271 36.41 7.271ZM36.41 8.041C36.23 8.041 36.07 7.891 36.07 7.691C36.07 7.501 36.22 7.341 36.41 7.341C36.59 7.341 36.74 7.501 36.74 7.691C36.74 7.881 36.59 8.041 36.41 8.041Z" fill="#231F20"/>
<path id="Vector_8" d="M37 13.0791C37 13.0791 27.09 19.9681 8.97595 23.0951H34.999C35.5266 23.0951 36.0329 22.8866 36.4075 22.515C36.7822 22.1434 36.9947 21.6388 36.999 21.1111L37.023 18.0911L37 13.0791Z" fill="#F48120"/>
</g>
<defs>
<linearGradient id="paint0_linear_92_1068" x1="21.657" y1="12.3703" x2="19.632" y2="9.19926" gradientUnits="userSpaceOnUse">
<stop stop-color="#F89F20"/>
<stop offset="0.25" stop-color="#F79A20"/>
<stop offset="0.533" stop-color="#F68D20"/>
<stop offset="0.62" stop-color="#F58720"/>
<stop offset="0.723" stop-color="#F48120"/>
<stop offset="1" stop-color="#F37521"/>
</linearGradient>
<linearGradient id="paint1_linear_92_1068" x1="21.338" y1="12.3273" x2="18.378" y2="6.54126" gradientUnits="userSpaceOnUse">
<stop stop-color="#F58720"/>
<stop offset="0.359" stop-color="#E16F27"/>
<stop offset="0.703" stop-color="#D4602C"/>
<stop offset="0.982" stop-color="#D05B2E"/>
</linearGradient>
</defs>
</svg>
