<svg width="38" height="25" viewBox="0 0 38 25" fill="none" xmlns="http://www.w3.org/2000/svg">
<g id="Item &#226;&#134;&#146; Img">
<g id="Group">
<path id="Vector" d="M35 0.0952148H3C1.34315 0.0952148 0 1.43836 0 3.09521V21.0952C0 22.7521 1.34315 24.0952 3 24.0952H35C36.6569 24.0952 38 22.7521 38 21.0952V3.09521C38 1.43836 36.6569 0.0952148 35 0.0952148Z" fill="black" fill-opacity="0.07"/>
<path id="Vector_2" fill-rule="evenodd" clip-rule="evenodd" d="M35 1.09521C36.1 1.09521 37 1.99521 37 3.09521V21.0952C37 22.1952 36.1 23.0952 35 23.0952H3C1.9 23.0952 1 22.1952 1 21.0952V3.09521C1 1.99521 1.9 1.09521 3 1.09521H35Z" fill="#3D95CE"/>
<path id="Vector_3" d="M24.675 8.45512C24.675 11.5191 22.118 15.5001 20.042 18.2951H15.302L13.4 6.66512L17.551 6.26312L18.556 14.5381C19.496 12.9721 20.655 10.5131 20.655 8.83612C20.655 7.91812 20.501 7.29312 20.261 6.77812L24.041 5.99512C24.478 6.73312 24.675 7.49412 24.675 8.45512Z" fill="white"/>
</g>
</g>
</svg>
