<svg width="38" height="25" viewBox="0 0 38 25" fill="none" xmlns="http://www.w3.org/2000/svg">
<g id="Item &#226;&#134;&#146; Img">
<path id="Vector" opacity="0.07" d="M35 0.0952148H3C1.3 0.0952148 0 1.39521 0 3.09521V21.0952C0 22.7952 1.4 24.0952 3 24.0952H35C36.7 24.0952 38 22.7952 38 21.0952V3.09521C38 1.39521 36.6 0.0952148 35 0.0952148Z" fill="black"/>
<path id="Vector_2" d="M35 1.09521C36.1 1.09521 37 1.99521 37 3.09521V21.0952C37 22.1952 36.1 23.0952 35 23.0952H3C1.9 23.0952 1 22.1952 1 21.0952V3.09521C1 1.99521 1.9 1.09521 3 1.09521H35Z" fill="white"/>
<path id="Vector_3" d="M23.9 8.39522C24.1 7.39522 23.9 6.69521 23.3 6.09521C22.7 5.39521 21.6 5.09521 20.2 5.09521H16.1C15.8 5.09521 15.6 5.29521 15.5 5.59521L14 15.6952C14 15.8952 14.1 16.0952 14.3 16.0952H17L17.4 12.6952L19.2 10.4952L23.9 8.39522Z" fill="#003087"/>
<path id="Vector_4" d="M23.9 8.39502L23.7 8.59502C23.2 11.395 21.5 12.395 19.1 12.395H18C17.7 12.395 17.5 12.595 17.4 12.895L16.8 16.795L16.6 17.795C16.6 17.995 16.7 18.195 16.9 18.195H19C19.3 18.195 19.5 17.995 19.5 17.795V17.695L19.9 15.295V15.195C19.9 14.995 20.2 14.795 20.4 14.795H20.7C22.8 14.795 24.4 13.995 24.8 11.595C25 10.595 24.9 9.79502 24.4 9.19502C24.3 8.69502 24.1 8.49502 23.9 8.39502Z" fill="#3086C8"/>
<path id="Vector_5" d="M23.3 8.19502C23.2 8.09502 23.1 8.09502 23 8.09502C22.9 8.09502 22.8 8.09502 22.7 7.99502C22.4 7.89502 22 7.89502 21.6 7.89502H18.6C18.5 7.89502 18.4 7.89502 18.4 7.99502C18.2 8.09502 18.1 8.19502 18.1 8.39502L17.4 12.795V12.895C17.4 12.595 17.7 12.395 18 12.395H19.3C21.8 12.395 23.4 11.395 23.9 8.59502V8.39502C23.8 8.29502 23.6 8.19502 23.4 8.19502H23.3Z" fill="#012169"/>
</g>
</svg>
