<svg width="38" height="25" viewBox="0 0 38 25" fill="none" xmlns="http://www.w3.org/2000/svg">
<g id="Item &#226;&#134;&#146; Img">
<path id="Vector" opacity="0.07" d="M35 0.0952148H3C1.3 0.0952148 0 1.39521 0 3.09521V21.0952C0 22.7952 1.4 24.0952 3 24.0952H35C36.7 24.0952 38 22.7952 38 21.0952V3.09521C38 1.39521 36.6 0.0952148 35 0.0952148Z" fill="black"/>
<path id="Vector_2" d="M35 1.09521C36.1 1.09521 37 1.99521 37 3.09521V21.0952C37 22.1952 36.1 23.0952 35 23.0952H3C1.9 23.0952 1 22.1952 1 21.0952V3.09521C1 1.99521 1.9 1.09521 3 1.09521H35Z" fill="white"/>
<path id="Vector_3" d="M15 19.0952C18.866 19.0952 22 15.9612 22 12.0952C22 8.22922 18.866 5.09521 15 5.09521C11.134 5.09521 8 8.22922 8 12.0952C8 15.9612 11.134 19.0952 15 19.0952Z" fill="#EB001B"/>
<path id="Vector_4" d="M23 19.0952C26.866 19.0952 30 15.9612 30 12.0952C30 8.22922 26.866 5.09521 23 5.09521C19.134 5.09521 16 8.22922 16 12.0952C16 15.9612 19.134 19.0952 23 19.0952Z" fill="#F79E1B"/>
<path id="Vector_5" d="M22 12.095C22 9.69502 20.8 7.59502 19 6.39502C17.2 7.69502 16 9.79502 16 12.095C16 14.395 17.2 16.595 19 17.795C20.8 16.595 22 14.495 22 12.095Z" fill="#FF5F00"/>
</g>
</svg>
