<svg width="38" height="25" viewBox="0 0 38 25" fill="none" xmlns="http://www.w3.org/2000/svg">
<g id="Item &#226;&#134;&#146; Img">
<path id="Vector" opacity="0.07" d="M35 0.0952148H3C1.3 0.0952148 0 1.39521 0 3.09521V21.0952C0 22.7952 1.4 24.0952 3 24.0952H35C36.7 24.0952 38 22.7952 38 21.0952V3.09521C38 1.39521 36.6 0.0952148 35 0.0952148Z" fill="black"/>
<path id="Vector_2" d="M35 1.09521C36.1 1.09521 37 1.99521 37 3.09521V21.0952C37 22.1952 36.1 23.0952 35 23.0952H3C1.9 23.0952 1 22.1952 1 21.0952V3.09521C1 1.99521 1.9 1.09521 3 1.09521H35Z" fill="white"/>
<path id="Vector_3" d="M28.3 10.1952H28C27.6 11.1952 27.3 11.6952 27 13.1952H28.9C28.6 11.6952 28.6 10.9952 28.3 10.1952ZM31.2 16.0952H29.5C29.4 16.0952 29.4 16.0952 29.3 15.9952L29.1 15.0952L29 14.8952H26.6C26.5 14.8952 26.4 14.8952 26.4 15.0952L26.1 15.9952C26.1 16.0952 26 16.0952 26 16.0952H23.9L24.1 15.5952L27 8.79521C27 8.29521 27.3 8.09521 27.8 8.09521H29.3C29.4 8.09521 29.5 8.09521 29.5 8.29521L30.9 14.7952C31 15.1952 31.1 15.4952 31.1 15.8952C31.2 15.9952 31.2 15.9952 31.2 16.0952ZM17.8 15.7952L18.2 13.9952C18.3 13.9952 18.4 14.0952 18.4 14.0952C19.1 14.3952 19.8 14.5952 20.5 14.4952C20.7 14.4952 21 14.3952 21.2 14.2952C21.7 14.0952 21.7 13.5952 21.3 13.1952C21.1 12.9952 20.8 12.8952 20.5 12.6952C20.1 12.4952 19.7 12.2952 19.4 11.9952C18.2 10.9952 18.6 9.59522 19.3 8.89522C19.9 8.49522 20.2 8.09521 21 8.09521C22.2 8.09521 23.5 8.09521 24.1 8.29521H24.2C24.1 8.89521 24 9.39521 23.8 9.99521C23.3 9.79521 22.8 9.59521 22.3 9.59521C22 9.59521 21.7 9.59522 21.4 9.69522C21.2 9.69522 21.1 9.79522 21 9.89522C20.8 10.0952 20.8 10.3952 21 10.5952L21.5 10.9952C21.9 11.1952 22.3 11.3952 22.6 11.5952C23.1 11.8952 23.6 12.3952 23.7 12.9952C23.9 13.8952 23.6 14.6952 22.8 15.2952C22.3 15.6952 22.1 15.8952 21.4 15.8952C20 15.8952 18.9 15.9952 18 15.6952C17.9 15.8952 17.9 15.8952 17.8 15.7952ZM14.3 16.0952C14.4 15.3952 14.4 15.3952 14.5 15.0952C15 12.8952 15.5 10.5952 15.9 8.39522C16 8.19522 16 8.09521 16.2 8.09521H18C17.8 9.29521 17.6 10.1952 17.3 11.2952C17 12.7952 16.7 14.2952 16.3 15.7952C16.3 15.9952 16.2 15.9952 16 15.9952M5 8.29521C5 8.19521 5.2 8.09521 5.3 8.09521H8.7C9.2 8.09521 9.6 8.39522 9.7 8.89522L10.6 13.2952C10.6 13.3952 10.6 13.3952 10.7 13.4952C10.7 13.3952 10.8 13.3952 10.8 13.3952L12.9 8.29521C12.8 8.19521 12.9 8.09521 13 8.09521H15.1C15.1 8.19521 15.1 8.19521 15 8.29521L11.9 15.5952C11.8 15.7952 11.8 15.8952 11.7 15.9952C11.6 16.0952 11.4 15.9952 11.2 15.9952H9.7C9.6 15.9952 9.5 15.9952 9.5 15.7952L7.9 9.59521C7.7 9.39521 7.4 9.09521 7 8.99521C6.4 8.69521 5.3 8.49521 5.1 8.49521L5 8.29521Z" fill="#142688"/>
</g>
</svg>
