<svg width="38" height="25" viewBox="0 0 38 25" fill="none" xmlns="http://www.w3.org/2000/svg">
<g id="Item &#226;&#134;&#146; Img">
<path id="Vector" opacity="0.07" d="M35 0.0952148H3C1.3 0.0952148 0 1.39521 0 3.09521V21.0952C0 22.7952 1.4 24.0952 3 24.0952H35C36.7 24.0952 38 22.7952 38 21.0952V3.09521C38 1.39521 36.6 0.0952148 35 0.0952148Z" fill="black"/>
<path id="Vector_2" d="M35 1.09521C36.1 1.09521 37 1.99521 37 3.09521V21.0952C37 22.1952 36.1 23.0952 35 23.0952H3C1.9 23.0952 1 22.1952 1 21.0952V3.09521C1 1.99521 1.9 1.09521 3 1.09521H35Z" fill="white"/>
<path id="Vector_3" d="M12 12.0952V15.7952C12 16.0952 11.8 16.0952 11.5 15.9952C9.59998 15.1952 8.49998 12.6952 9.19998 10.5952C9.59998 9.49521 10.4 8.59522 11.5 8.19522C11.9 7.99522 12 8.09522 12 8.39522V12.0952ZM14 12.0952V8.39522C14 8.09522 14 8.09522 14.3 8.19522C16.4 8.99522 17.5 11.4952 16.7 13.5952C16.3 14.6952 15.5 15.5952 14.4 15.9952C14 16.1952 14 16.0952 14 15.7952V12.0952ZM21.2 5.09521H13C16.8 5.09521 19.8 8.19521 19.8 12.0952C19.8 15.9952 16.8 19.0952 13 19.0952H21.2C25 19.0952 28 15.9952 28 12.0952C28 8.19521 25 5.09521 21.2 5.09521Z" fill="#3086C8"/>
</g>
</svg>
