<svg width="38" height="25" viewBox="0 0 38 25" fill="none" xmlns="http://www.w3.org/2000/svg">
<g id="Item &#226;&#134;&#146; Img">
<path id="Vector" opacity="0.07" d="M35 0.0952148H3C1.3 0.0952148 0 1.39521 0 3.09521V21.0952C0 22.7952 1.4 24.0952 3 24.0952H35C36.7 24.0952 38 22.7952 38 21.0952V3.09521C38 1.39521 36.6 0.0952148 35 0.0952148Z" fill="black"/>
<path id="Vector_2" d="M35.889 0.0952148C37.05 0.0952148 38 1.07721 38 2.27721V21.9132C38 23.1132 37.05 24.0952 35.889 24.0952H2.11C0.95 24.0952 0 23.1132 0 21.9132V2.27721C0 1.07721 0.95 0.0952148 2.111 0.0952148H35.889Z" fill="#5A31F4"/>
<path id="Vector_3" d="M9.35001 11.4632C8.33301 11.2402 7.88001 11.1532 7.88001 10.7582C7.88001 10.3862 8.18601 10.2002 8.80001 10.2002C9.34001 10.2002 9.73401 10.4382 10.025 10.9042C10.0353 10.9215 10.0517 10.9342 10.0711 10.9398C10.0904 10.9454 10.1111 10.9434 10.129 10.9342L11.275 10.3502C11.2848 10.345 11.2934 10.3379 11.3003 10.3293C11.3072 10.3206 11.3123 10.3107 11.3153 10.3C11.3183 10.2894 11.3191 10.2782 11.3177 10.2673C11.3163 10.2563 11.3126 10.2457 11.307 10.2362C10.832 9.40521 9.95401 8.95021 8.79701 8.95021C7.27701 8.95021 6.33301 9.70521 6.33301 10.9062C6.33301 12.1812 7.48301 12.5032 8.50301 12.7262C9.52301 12.9482 9.97701 13.0362 9.97701 13.4312C9.97701 13.8272 9.64501 14.0132 8.98401 14.0132C8.37201 14.0132 7.91901 13.7312 7.64401 13.1832C7.63438 13.1645 7.61774 13.1503 7.59771 13.1437C7.57767 13.1372 7.55586 13.1388 7.53701 13.1482L6.39401 13.7182C6.37461 13.7283 6.35995 13.7455 6.35321 13.7663C6.34647 13.7871 6.34819 13.8097 6.35801 13.8292C6.81201 14.7492 7.74201 15.2662 8.98501 15.2662C10.568 15.2662 11.524 14.5242 11.524 13.2862C11.524 12.0482 10.369 11.6882 9.35101 11.4662L9.35001 11.4632ZM15.49 8.95021C14.84 8.95021 14.266 9.18222 13.854 9.59622C13.8484 9.60219 13.841 9.60629 13.8329 9.60794C13.8249 9.60959 13.8165 9.60871 13.809 9.60543C13.8014 9.60215 13.7951 9.59663 13.7908 9.58961C13.7865 9.58259 13.7845 9.57442 13.785 9.56621V6.92621C13.7851 6.91563 13.7832 6.90511 13.7792 6.89529C13.7752 6.88547 13.7694 6.87653 13.7619 6.869C13.7545 6.86146 13.7456 6.85548 13.7359 6.8514C13.7261 6.84732 13.7156 6.84521 13.705 6.84521H12.27C12.2593 6.84521 12.2488 6.84735 12.2389 6.85149C12.2291 6.85563 12.2202 6.86171 12.2127 6.86935C12.2053 6.87699 12.1994 6.88605 12.1955 6.89599C12.1916 6.90592 12.1897 6.91654 12.19 6.92721V15.1212C12.1897 15.1319 12.1916 15.1425 12.1955 15.1524C12.1994 15.1624 12.2053 15.1714 12.2127 15.1791C12.2202 15.1867 12.2291 15.1928 12.2389 15.1969C12.2488 15.2011 12.2593 15.2032 12.27 15.2032H13.703C13.7138 15.2034 13.7244 15.2013 13.7344 15.1972C13.7444 15.1931 13.7534 15.1871 13.7609 15.1794C13.7685 15.1718 13.7744 15.1627 13.7784 15.1527C13.7824 15.1427 13.7843 15.132 13.784 15.1212V11.5272C13.784 10.8322 14.312 10.3002 15.023 10.3002C15.733 10.3002 16.249 10.8212 16.249 11.5272V15.1212C16.2487 15.132 16.2506 15.1427 16.2546 15.1527C16.2586 15.1627 16.2645 15.1718 16.2721 15.1794C16.2796 15.1871 16.2887 15.1931 16.2986 15.1972C16.3086 15.2013 16.3192 15.2034 16.33 15.2032H17.763C17.7738 15.2034 17.7844 15.2013 17.7944 15.1972C17.8044 15.1931 17.8134 15.1871 17.8209 15.1794C17.8285 15.1718 17.8344 15.1627 17.8384 15.1527C17.8424 15.1427 17.8443 15.132 17.844 15.1212V11.5272C17.844 10.0172 16.864 8.95021 15.49 8.95021ZM20.753 8.71521C19.975 8.71521 19.246 8.95521 18.723 9.30322C18.7055 9.31454 18.6929 9.33212 18.6879 9.35237C18.6829 9.37262 18.6858 9.39402 18.696 9.41222L19.328 10.5002C19.3332 10.5095 19.3402 10.5176 19.3485 10.5241C19.3569 10.5307 19.3665 10.5355 19.3767 10.5382C19.387 10.541 19.3977 10.5418 19.4082 10.5404C19.4187 10.539 19.4288 10.5356 19.438 10.5302C19.8348 10.2881 20.2912 10.1613 20.756 10.1642C22.006 10.1642 22.926 11.0552 22.926 12.2322C22.926 13.2352 22.19 13.9772 21.257 13.9772C20.497 13.9772 19.969 13.5312 19.969 12.9002C19.969 12.5392 20.121 12.2432 20.517 12.0342C20.5268 12.0292 20.5355 12.0222 20.5425 12.0137C20.5495 12.0052 20.5547 11.9953 20.5577 11.9847C20.5607 11.9741 20.5615 11.963 20.56 11.9521C20.5585 11.9411 20.5548 11.9306 20.549 11.9212L19.953 10.9032C19.9435 10.8867 19.9284 10.874 19.9105 10.8676C19.8925 10.8612 19.8728 10.8614 19.855 10.8682C19.056 11.1672 18.496 11.8862 18.496 12.8522C18.496 14.3122 19.648 15.4022 21.256 15.4022C23.133 15.4022 24.483 14.0892 24.483 12.2072C24.483 10.1892 22.913 8.71521 20.753 8.71521ZM28.675 8.93822C27.951 8.93822 27.302 9.20821 26.83 9.68421C26.804 9.71121 26.761 9.69122 26.761 9.65522V9.08321C26.7613 9.07254 26.7594 9.06192 26.7555 9.05199C26.7516 9.04205 26.7458 9.03299 26.7383 9.02535C26.7308 9.01771 26.7219 9.01164 26.7121 9.00749C26.7023 9.00335 26.6917 9.00121 26.681 9.00121H25.284C25.2733 9.00121 25.2628 9.00335 25.2529 9.00749C25.2431 9.01164 25.2342 9.01771 25.2267 9.02535C25.2193 9.03299 25.2134 9.04205 25.2095 9.05199C25.2056 9.06192 25.2037 9.07254 25.204 9.08321V17.2652C25.2039 17.2758 25.2058 17.2863 25.2098 17.2961C25.2138 17.306 25.2196 17.3149 25.2271 17.3224C25.2345 17.33 25.2434 17.3359 25.2532 17.34C25.2629 17.3441 25.2734 17.3462 25.284 17.3462H26.717C26.7277 17.3463 26.7383 17.3443 26.7482 17.3403C26.7581 17.3363 26.767 17.3303 26.7746 17.3228C26.7821 17.3152 26.7881 17.3063 26.7921 17.2964C26.7961 17.2865 26.7981 17.2759 26.798 17.2652V14.5822C26.798 14.5462 26.841 14.5282 26.867 14.5522C27.3569 15.0099 28.0046 15.2607 28.675 15.2522C30.357 15.2522 31.668 13.8792 31.668 12.0952C31.668 10.3112 30.355 8.93822 28.675 8.93822ZM28.404 13.8672C27.448 13.8672 26.723 13.0992 26.723 12.0842C26.723 11.0692 27.446 10.3012 28.404 10.3012C29.362 10.3012 30.084 11.0562 30.084 12.0842C30.084 13.1112 29.372 13.8672 28.404 13.8672Z" fill="white"/>
</g>
</svg>
