<svg width="38" height="25" viewBox="0 0 38 25" fill="none" xmlns="http://www.w3.org/2000/svg">
<g id="Item &#226;&#134;&#146; Img">
<path id="Vector" opacity="0.07" d="M35 0.0952148H3C1.3 0.0952148 0 1.39521 0 3.09521V21.0952C0 22.7952 1.4 24.0952 3 24.0952H35C36.7 24.0952 38 22.7952 38 21.0952V3.09521C38 1.39521 36.6 0.0952148 35 0.0952148Z" fill="black"/>
<path id="Vector_2" d="M35 1.09521C36.1 1.09521 37 1.99521 37 3.09521V21.0952C37 22.1952 36.1 23.0952 35 23.0952H3C1.9 23.0952 1 22.1952 1 21.0952V3.09521C1 1.99521 1.9 1.09521 3 1.09521H35Z" fill="white"/>
<path id="Vector_3" d="M18.093 12.0714V15.2714H17.075V7.37144H19.766C20.0884 7.36599 20.4087 7.42431 20.7085 7.54307C21.0083 7.66183 21.2817 7.83868 21.513 8.06344C21.732 8.26784 21.9086 8.5134 22.0327 8.78608C22.1568 9.05877 22.2259 9.35323 22.2361 9.65265C22.2463 9.95206 22.1974 10.2506 22.0922 10.5311C21.987 10.8116 21.8275 11.0686 21.6229 11.2874L21.513 11.4034C21.043 11.8504 20.415 12.0934 19.766 12.0774L18.093 12.0714ZM18.093 8.33944V11.1274H19.791C20.168 11.1394 20.5319 10.9924 20.7959 10.7234C20.9848 10.5266 21.1116 10.2786 21.1606 10.0103C21.2096 9.74195 21.1786 9.46513 21.0715 9.21427C20.9644 8.96341 20.7859 8.74958 20.5582 8.59937C20.3305 8.44915 20.0637 8.3692 19.791 8.36944L18.093 8.33944ZM24.577 9.68744C25.2269 9.65744 25.863 9.87544 26.3549 10.3004C26.7999 10.7304 27.0369 11.3304 27.0049 11.9494V15.2834H26.0359V14.5174H25.9869C25.8132 14.8047 25.5674 15.0417 25.274 15.205C24.9806 15.3683 24.6497 15.4522 24.3139 15.4484C23.7658 15.4662 23.2314 15.2758 22.818 14.9154C22.6221 14.7557 22.4651 14.5534 22.3589 14.3241C22.2527 14.0947 22.2001 13.8442 22.205 13.5914C22.1934 13.336 22.243 13.0816 22.3496 12.8492C22.4563 12.6168 22.6168 12.4133 22.818 12.2554C23.3114 11.9006 23.9086 11.7195 24.516 11.7404C25.033 11.7204 25.546 11.8334 26.006 12.0714V11.8634C26.0093 11.6915 25.9735 11.521 25.9013 11.3649C25.829 11.2088 25.7222 11.0712 25.589 10.9624C25.3213 10.7191 24.9706 10.5874 24.6089 10.5944C24.3463 10.592 24.0873 10.6565 23.8565 10.782C23.6257 10.9074 23.4307 11.0897 23.29 11.3114L22.395 10.7474C22.638 10.3992 22.9661 10.119 23.348 9.93349C23.7299 9.74795 24.153 9.66325 24.577 9.68744ZM23.29 13.6154C23.2875 13.745 23.317 13.8731 23.3758 13.9885C23.4346 14.104 23.5208 14.2032 23.627 14.2774C23.85 14.4534 24.127 14.5464 24.412 14.5404C24.841 14.5394 25.252 14.3704 25.558 14.0684C25.863 13.7824 26.0359 13.3834 26.0359 12.9654C25.651 12.6918 25.1832 12.5596 24.712 12.5914C24.346 12.577 23.9851 12.6801 23.6819 12.8854C23.5619 12.9658 23.4634 13.0743 23.395 13.2016C23.3267 13.3289 23.2906 13.471 23.29 13.6154ZM32.576 9.86544L29.186 17.6554H28.138L29.419 14.9274L27.195 9.86544H28.298L29.91 13.7504L31.479 9.86544H32.576Z" fill="#5F6368"/>
<path id="Vector_4" d="M13.986 11.379C13.986 11.071 13.962 10.763 13.913 10.459H9.62305V12.206H12.074C12.0241 12.4836 11.9187 12.7483 11.7641 12.9843C11.6094 13.2202 11.4087 13.4225 11.174 13.579V14.713H12.638C13.0832 14.2823 13.4331 13.7631 13.6653 13.1888C13.8975 12.6146 14.0067 11.998 13.986 11.379Z" fill="#4285F4"/>
<path id="Vector_5" d="M9.62903 15.8162C10.7353 15.8465 11.8117 15.4543 12.639 14.7192L11.173 13.5792C10.8208 13.805 10.4217 13.9476 10.006 13.996C9.59043 14.0444 9.16924 13.9974 8.77451 13.8585C8.37978 13.7197 8.02191 13.4927 7.72812 13.1947C7.43432 12.8968 7.21233 12.5358 7.07903 12.1392H5.57703V13.3092C5.95288 14.0622 6.53107 14.6956 7.24678 15.1384C7.96249 15.5813 8.78741 15.8159 9.62903 15.8162Z" fill="#34A853"/>
<path id="Vector_6" d="M7.07905 12.1452C6.88885 11.5825 6.88885 10.9729 7.07905 10.4102V9.24023H5.57705C5.25684 9.87169 5.08997 10.5697 5.08997 11.2777C5.08997 11.9857 5.25684 12.6838 5.57705 13.3152L7.07905 12.1452Z" fill="#FBBC04"/>
<path id="Vector_7" d="M9.62903 8.5354C10.276 8.52358 10.9015 8.76801 11.369 9.2154L12.669 7.9224C11.8401 7.14442 10.7407 6.72006 9.60403 6.7394C8.76739 6.7436 7.94827 6.97941 7.23746 7.42068C6.52665 7.86196 5.95194 8.49146 5.57703 9.2394L7.07903 10.4104C7.25465 9.87048 7.59512 9.39921 8.05253 9.06287C8.50995 8.72654 9.0613 8.54206 9.62903 8.5354Z" fill="#EA4335"/>
</g>
</svg>
