<svg width="38" height="25" viewBox="0 0 38 25" fill="none" xmlns="http://www.w3.org/2000/svg">
<g id="Item &#226;&#134;&#146; Img">
<path id="Vector" d="M34.3872 0.0952148H3.61287C3.48468 0.0952148 3.35626 0.0952148 3.2283 0.0958943C3.12026 0.0968003 3.01245 0.0979327 2.90441 0.100877C2.66909 0.107219 2.43173 0.121261 2.19935 0.162935C1.9663 0.202863 1.74051 0.277289 1.52939 0.383763C1.10499 0.599626 0.760026 0.944589 0.544163 1.36899C0.4375 1.58019 0.363065 1.80616 0.323336 2.0394C0.281209 2.27201 0.267393 2.50914 0.261051 2.74424C0.258291 2.85218 0.25663 2.96015 0.256068 3.06812C0.255615 3.19586 0.255615 3.32405 0.255615 3.45247V20.7377C0.255615 20.8661 0.255615 20.9941 0.256068 21.1225C0.256748 21.2303 0.258107 21.3384 0.261051 21.4464C0.267393 21.6811 0.281435 21.9184 0.323336 22.1508C0.362983 22.384 0.437342 22.61 0.543937 22.8212C0.651108 23.0321 0.790999 23.2248 0.958413 23.392C1.12554 23.5594 1.31819 23.6993 1.52917 23.8064C1.74365 23.9158 1.96335 23.9854 2.19958 24.0277C2.43173 24.0692 2.66909 24.0832 2.90441 24.0896C3.01245 24.092 3.12026 24.0934 3.2283 24.0941C3.35626 24.095 3.48468 24.095 3.61287 24.095H34.3872C34.5152 24.095 34.6436 24.095 34.7715 24.0941C34.8794 24.0936 34.9872 24.092 35.0956 24.0896C35.3305 24.0832 35.5679 24.0692 35.8007 24.0277C36.0338 23.9878 36.2596 23.9132 36.4707 23.8064C36.8949 23.5903 37.2397 23.2454 37.4559 22.8212C37.5653 22.6067 37.6346 22.387 37.6765 22.1508C37.7186 21.9184 37.7322 21.6811 37.7386 21.4464C37.7415 21.3384 37.7431 21.2303 37.7435 21.1225C37.7444 20.9941 37.7444 20.8661 37.7444 20.7377V3.4527C37.7444 3.32428 37.7444 3.19609 37.7435 3.06789C37.7431 2.95999 37.7414 2.8521 37.7386 2.74424C37.7322 2.50914 37.7186 2.27201 37.6765 2.0394C37.6371 1.80612 37.5627 1.58012 37.4559 1.36899C37.2399 0.944663 36.895 0.599728 36.4707 0.383763C36.2595 0.277399 36.0337 0.203051 35.8007 0.163162C35.5679 0.121261 35.3305 0.107445 35.0956 0.101104C34.9876 0.0983602 34.8796 0.0966992 34.7715 0.0961208C34.6436 0.0952148 34.5152 0.0952148 34.3872 0.0952148Z" fill="black"/>
<path id="Vector_2" d="M34.3871 0.89502L34.7658 0.895699C34.8682 0.896378 34.9708 0.897511 35.0739 0.900229C35.2535 0.905212 35.4632 0.914951 35.6589 0.950057C35.8288 0.980633 35.9714 1.02706 36.1082 1.09682C36.382 1.23601 36.6044 1.45866 36.7433 1.73258C36.8126 1.86847 36.8588 2.01026 36.8894 2.18171C36.9243 2.37513 36.934 2.58554 36.9388 2.76605C36.9417 2.86797 36.9431 2.96989 36.9433 3.07408C36.9444 3.20023 36.9444 3.32616 36.9444 3.45254V20.7378C36.9444 20.8642 36.9444 20.9901 36.9435 21.1188C36.9431 21.2207 36.9417 21.3226 36.939 21.4245C36.934 21.6048 36.9243 21.8152 36.889 22.0109C36.8633 22.1666 36.814 22.3174 36.7429 22.4582C36.6037 22.7322 36.3809 22.9549 36.1069 23.094C35.971 23.1633 35.8288 23.2097 35.6605 23.2401C35.4609 23.2756 35.2421 23.2854 35.0775 23.2899C34.974 23.2922 34.8709 23.2937 34.7652 23.2942C34.6395 23.2951 34.5131 23.2951 34.3871 23.2951H3.60786C3.48329 23.2951 3.35872 23.2951 3.23188 23.2942C3.12995 23.2937 3.02803 23.2924 2.92612 23.2901C2.75761 23.2856 2.53882 23.2756 2.34087 23.2403C2.18436 23.2142 2.03271 23.1646 1.89106 23.0931C1.7552 23.024 1.63119 22.9338 1.5237 22.8258C1.41587 22.7182 1.32581 22.5941 1.25689 22.4582C1.18572 22.3166 1.13639 22.165 1.11058 22.0086C1.07525 21.8132 1.06528 21.6037 1.06075 21.4247C1.05819 21.3225 1.05668 21.2202 1.05622 21.1178L1.05554 20.8173V3.37327L1.05599 3.07317C1.05646 2.97071 1.05797 2.86826 1.06052 2.76583C1.06551 2.58645 1.07525 2.37694 1.11081 2.1799C1.13666 2.02381 1.18599 1.87254 1.25712 1.73122C1.32597 1.59578 1.41566 1.47212 1.52438 1.36363C1.63213 1.25571 1.75627 1.16551 1.8922 1.09637C2.03349 1.02538 2.18467 0.976059 2.34065 0.950057C2.53656 0.914951 2.74652 0.905212 2.92635 0.900229C3.02872 0.897511 3.13132 0.896378 3.23302 0.895699L3.61284 0.89502H34.3871Z" fill="white"/>
<g id="Group">
<g id="Group_2">
<path id="Vector_3" d="M10.1098 8.19693C10.4278 7.79944 10.6434 7.2656 10.5865 6.72021C10.1213 6.74332 9.55376 7.02711 9.22489 7.42505C8.92978 7.76569 8.66863 8.32172 8.73658 8.84424C9.25886 8.88953 9.7807 8.58332 10.1098 8.19693Z" fill="black"/>
<path id="Vector_4" d="M10.5806 8.9464C9.82187 8.9011 9.17727 9.37673 8.81512 9.37673C8.45273 9.37673 7.89806 8.96905 7.29809 8.98015C6.51738 8.99147 5.79306 9.43313 5.39671 10.1352C4.58179 11.5395 5.18154 13.6232 5.97425 14.767C6.35906 15.3332 6.82291 15.956 7.43398 15.9336C8.01153 15.911 8.23779 15.5599 8.93946 15.5599C9.6409 15.5599 9.84474 15.9336 10.456 15.9223C11.0898 15.911 11.4861 15.3561 11.8709 14.7898C12.3126 14.1443 12.4931 13.5215 12.5044 13.4875C12.4931 13.4762 11.2823 13.0117 11.2709 11.6188C11.2596 10.4523 12.2218 9.89743 12.267 9.86323C11.7237 9.05965 10.8748 8.96905 10.5804 8.9464" fill="black"/>
</g>
<g id="Group_3">
<path id="Vector_5" d="M18.1422 7.36816C19.7906 7.36816 20.9386 8.50446 20.9386 10.1587C20.9386 11.8189 19.767 12.9611 18.101 12.9611H16.2759V15.8638H14.9573V7.36816H18.1422ZM16.2759 11.8542H17.7889C18.9372 11.8542 19.5904 11.2362 19.5904 10.1646C19.5904 9.09334 18.9369 8.48091 17.7947 8.48091H16.2759V11.8542Z" fill="black"/>
<path id="Vector_6" d="M21.2657 14.1032C21.2657 13.0141 22.0958 12.3901 23.6265 12.2959L25.269 12.1957V11.7246C25.269 11.0361 24.8157 10.6592 24.0092 10.6592C23.3438 10.6592 22.8609 11.0006 22.7613 11.5244H21.5717C21.6073 10.4237 22.6433 9.62305 24.0446 9.62305C25.5516 9.62305 26.5348 10.4119 26.5348 11.6365V15.8635H25.3163V14.845H25.2868C24.9394 15.5102 24.1739 15.9281 23.3438 15.9281C22.1194 15.9281 21.2657 15.1983 21.2657 14.1032ZM25.269 13.5558V13.0788L23.8031 13.173C22.9787 13.226 22.5493 13.532 22.5493 14.0677C22.5493 14.5859 22.9966 14.9216 23.6971 14.9216C24.5918 14.9216 25.269 14.3503 25.269 13.5558Z" fill="black"/>
<path id="Vector_7" d="M27.6552 18.136V17.1177C27.7376 17.1293 27.9376 17.141 28.0436 17.141C28.6263 17.141 28.9561 16.8942 29.1563 16.2579L29.2741 15.8813L27.0427 9.69971H28.4202L29.9746 14.7156H30.0041L31.5583 9.69971H32.9007L30.5868 16.1932C30.0569 17.6828 29.4505 18.1716 28.1672 18.1716C28.0671 18.1716 27.7433 18.1598 27.6552 18.136Z" fill="black"/>
</g>
</g>
</g>
</svg>
