<svg width="382" height="272" viewBox="0 0 382 272" fill="none" xmlns="http://www.w3.org/2000/svg">
<path d="M304.37 95.458C293.665 95.458 283.467 97.6337 274.189 101.567C272.039 45.11 225.768 0 168.993 0C113.208 0 67.5648 43.5477 63.9487 98.6189C27.745 104.13 0 135.498 0 173.373C0 215.134 33.7294 248.987 75.3366 248.987C94.8559 248.987 112.641 241.536 126.023 229.313C133.655 254.039 156.617 272 183.761 272C213.691 272 238.525 250.157 243.338 221.49C257.551 239.627 279.597 251.288 304.371 251.288C347.244 251.288 382 216.404 382 173.373C382 130.342 347.243 95.458 304.37 95.458Z" fill="#6987F0"/>
</svg>
