<svg width="57" height="56" viewBox="0 0 57 56" fill="none" xmlns="http://www.w3.org/2000/svg">
<rect x="0.5" width="56" height="56" rx="28" fill="#6987F0"/>
<mask id="mask0_92_739" style="mask-type:luminance" maskUnits="userSpaceOnUse" x="14" y="13" width="29" height="29">
<path d="M41.7118 40.5532V14.1304H15.2889V40.5532H41.7118Z" fill="white" stroke="white" stroke-width="1.68"/>
</mask>
<g mask="url(#mask0_92_739)">
<path d="M30.2647 15.6131C29.8289 15.0636 29.1785 14.3778 28.5414 14.3778C27.9042 14.3778 27.2804 15.0636 26.8447 15.6131C25.1597 17.7376 22.8464 21.005 22.8464 22.9035C22.8464 26.0407 25.3963 28.5839 28.5547 28.5839C31.713 28.5839 34.263 26.0407 34.263 22.9035C34.263 21.005 31.9496 17.7376 30.2647 15.6131Z" stroke="white" stroke-width="1.68" stroke-miterlimit="10" stroke-linecap="round" stroke-linejoin="round"/>
<path d="M41.4531 22.8391C41.4531 22.8391 36.4034 32.4443 28.5546 32.4443C20.7057 32.4443 15.5463 22.8391 15.5463 22.8391" stroke="white" stroke-width="1.68" stroke-miterlimit="10" stroke-linecap="round" stroke-linejoin="round"/>
</g>
<path d="M42.0788 34.0043C41.678 33.87 41.2489 33.8435 40.8346 33.9273L37.1754 34.5747C34.3117 35.0858 31.4089 35.346 28.4999 35.3525C25.591 35.346 22.6882 35.0858 19.8245 34.5747L16.1653 33.9273C15.751 33.8435 15.3219 33.87 14.921 34.0043C14.4454 34.1764 14.0342 34.4909 13.7435 34.9049C13.4528 35.3189 13.2966 35.8123 13.2962 36.3182V40.2515C13.2962 40.9024 13.5544 41.5267 14.0141 41.9874C14.4738 42.4482 15.0976 42.7077 15.7484 42.7092H41.2515C41.9023 42.7077 42.526 42.4482 42.9858 41.9874C43.4455 41.5267 43.7037 40.9024 43.7037 40.2515V36.3182C43.7033 35.8123 43.5471 35.3189 43.2564 34.9049C42.9657 34.4909 42.5545 34.1764 42.0788 34.0043ZM42.7228 40.2515C42.7231 40.6423 42.5683 41.0173 42.2925 41.2941C42.0166 41.571 41.6423 41.7271 41.2515 41.7283H15.7484C15.3576 41.7271 14.9832 41.571 14.7074 41.2941C14.4316 41.0173 14.2768 40.6423 14.2771 40.2515V36.3182C14.2772 36.0143 14.3709 35.7178 14.5455 35.4691C14.72 35.2203 14.9669 35.0313 15.2526 34.9278C15.3846 34.8822 15.5235 34.8599 15.6631 34.8621C15.7743 34.8628 15.8852 34.873 15.9946 34.8925L19.6538 35.5403C22.5738 36.0617 25.5338 36.327 28.4999 36.3334C31.4661 36.327 34.4261 36.0617 37.3461 35.5403L41.0062 34.8925C41.2525 34.8396 41.5082 34.8517 41.7483 34.9278C42.0338 35.0315 42.2805 35.2205 42.4548 35.4693C42.6292 35.718 42.7227 36.0144 42.7228 36.3182V40.2515Z" fill="white" stroke="white" stroke-width="0.56"/>
</svg>
