<svg width="20" height="20" viewBox="0 0 20 20" fill="none" xmlns="http://www.w3.org/2000/svg">
<g clip-path="url(#clip0_92_697)">
<path d="M10.2169 0.627497C9.94065 0.620622 9.6644 0.627497 9.3894 0.645622C7.60565 0.762497 5.9219 1.33875 4.43815 2.455V1.8725C4.43815 1.70674 4.37231 1.54777 4.2551 1.43055C4.13789 1.31334 3.97891 1.2475 3.81315 1.2475C3.64739 1.2475 3.48842 1.31334 3.37121 1.43055C3.254 1.54777 3.18815 1.70674 3.18815 1.8725V3.81C3.18815 4.36687 3.8594 4.645 4.25378 4.25312C7.14065 1.36687 11.71 1.0675 14.9482 3.5525C18.1863 6.0375 19.0788 10.5275 17.0388 14.0625C14.9975 17.5975 10.665 19.0662 6.89378 17.5037C3.12253 15.9412 1.0994 11.8406 2.15628 7.89812C2.17761 7.81875 2.18306 7.73595 2.17232 7.65447C2.16158 7.57299 2.13486 7.49443 2.09369 7.4233C2.05252 7.35217 1.99772 7.28986 1.93241 7.23996C1.86711 7.19006 1.7926 7.15354 1.71315 7.1325C1.55337 7.08903 1.38286 7.11076 1.23908 7.19291C1.09529 7.27505 0.989986 7.4109 0.946279 7.57062C-0.269971 12.1106 2.0719 16.8625 6.41378 18.6619C10.7557 20.4606 15.7694 18.7537 18.1194 14.685C20.4694 10.6162 19.4394 5.42062 15.7107 2.56C14.132 1.34718 12.2072 0.670129 10.2169 0.627497ZM10.0025 3.60375C6.4769 3.60375 3.60253 6.47375 3.60253 9.99875C3.60253 13.5237 6.47753 16.3975 10.0025 16.3975C13.5275 16.3975 16.3963 13.5231 16.3963 9.99875C16.3963 6.47437 13.5275 3.60375 10.0025 3.60375ZM10.0025 6.07187C10.0846 6.0722 10.1658 6.08869 10.2415 6.1204C10.3172 6.15211 10.3859 6.19843 10.4437 6.2567C10.5015 6.31496 10.5473 6.38405 10.5784 6.46C10.6095 6.53596 10.6254 6.6173 10.625 6.69937V6.79562C11.25 6.88062 11.7857 7.26812 12.07 7.8075C12.1471 7.95444 12.1627 8.12599 12.1133 8.2844C12.0638 8.44281 11.9535 8.57511 11.8066 8.65218C11.6596 8.72926 11.4881 8.74481 11.3297 8.69541C11.1713 8.646 11.039 8.53569 10.9619 8.38875C10.9057 8.27944 10.8203 8.1879 10.7151 8.12433C10.6099 8.06076 10.4892 8.02767 10.3663 8.02875H9.78503C9.40128 8.02875 9.11128 8.31875 9.11128 8.7025C9.11128 9.08625 9.40128 9.37625 9.78503 9.37625H10.2188C11.2738 9.37625 12.1375 10.2456 12.1375 11.3C12.1358 11.7381 11.9851 12.1626 11.7102 12.5038C11.4354 12.8449 11.0527 13.0825 10.625 13.1775V13.3019C10.625 13.4678 10.5591 13.6269 10.4418 13.7443C10.3245 13.8616 10.1653 13.9275 9.9994 13.9275C9.83348 13.9275 9.67435 13.8616 9.55702 13.7443C9.43969 13.6269 9.37378 13.4678 9.37378 13.3019V13.2044C9.07054 13.1623 8.7816 13.0488 8.53073 12.8734C8.27986 12.6979 8.0742 12.4654 7.93065 12.195C7.88974 12.1221 7.86386 12.0417 7.85456 11.9586C7.84525 11.8754 7.85269 11.7913 7.87646 11.7111C7.90022 11.631 7.93982 11.5564 7.99291 11.4917C8.046 11.4271 8.11151 11.3738 8.18555 11.3349C8.2596 11.2961 8.34069 11.2725 8.42403 11.2655C8.50736 11.2585 8.59125 11.2683 8.67074 11.2943C8.75022 11.3203 8.82369 11.3619 8.8868 11.4168C8.94991 11.4717 9.00137 11.5386 9.03815 11.6137C9.15003 11.8269 9.37065 11.9725 9.63753 11.9725H10.2188C10.6032 11.9725 10.8875 11.6837 10.8875 11.3C10.8875 10.9162 10.6032 10.6262 10.2188 10.6262H9.78503C9.27563 10.6236 8.78784 10.4201 8.42764 10.0599C8.06743 9.69968 7.86391 9.2119 7.86128 8.7025C7.86128 7.78937 8.51378 7.0175 9.37378 6.82625V6.69937C9.37345 6.61677 9.38949 6.53492 9.42099 6.45856C9.45248 6.38219 9.49881 6.31283 9.55727 6.25448C9.61574 6.19613 9.68519 6.14995 9.76162 6.1186C9.83805 6.08726 9.91993 6.07138 10.0025 6.07187Z" fill="#2B4162"/>
</g>
<defs>
<clipPath id="clip0_92_697">
<rect width="20" height="20" fill="white"/>
</clipPath>
</defs>
</svg>
