<svg width="116" height="57" viewBox="0 0 116 57" fill="none" xmlns="http://www.w3.org/2000/svg">
<path opacity="0.2" d="M23.4678 -3.22301C26.7039 -3.22301 29.7868 -2.6127 32.5916 -1.50938C33.2416 -17.3462 47.2295 -30 64.3929 -30C81.2568 -30 95.0549 -17.7844 96.1481 -2.33632C107.093 -0.790348 115.48 8.0088 115.48 18.6331C115.48 30.3473 105.283 39.8437 92.7054 39.8437C86.8047 39.8437 81.4282 37.7535 77.3826 34.3249C75.0757 41.2607 68.134 46.299 59.9284 46.299C50.8803 46.299 43.373 40.1718 41.9181 32.1304C37.6214 37.2179 30.9566 40.4891 23.4675 40.4891C10.5069 40.4891 -6.86646e-05 30.7037 -6.86646e-05 18.6331C-6.86646e-05 6.56242 10.5072 -3.22301 23.4678 -3.22301Z" fill="#CAD6FE"/>
<path d="M88.3985 25.7052C89.443 25.9342 90.4401 26.2477 91.3889 26.6319C93.017 27.2911 92.6252 29.5666 91.0438 30.3314C87.0197 32.2774 83.9952 35.6987 83.0381 40.0639C82.0808 44.4303 83.3975 48.8035 86.2398 52.2546C87.3562 53.6101 86.7611 55.8397 85.007 55.7578C83.9832 55.71 82.945 55.5775 81.8991 55.3482C72.5661 53.3019 66.4549 45.0071 68.2497 36.8215C70.0444 28.6359 79.0655 23.6589 88.3985 25.7052Z" fill="#F9CD39"/>
</svg>
