<svg width="12" height="465" viewBox="0 0 12 465" fill="none" xmlns="http://www.w3.org/2000/svg">
<path d="M6.17187 0.666667C3.22636 0.666667 0.838541 3.05448 0.838542 6C0.838542 8.94552 3.22636 11.3333 6.17188 11.3333C9.11739 11.3333 11.5052 8.94552 11.5052 6C11.5052 3.05448 9.11739 0.666666 6.17187 0.666667ZM6.17189 453.673C3.22638 453.673 0.838561 456.061 0.838561 459.006C0.838561 461.952 3.22638 464.34 6.1719 464.34C9.11741 464.34 11.5052 461.952 11.5052 459.006C11.5052 456.061 9.11741 453.673 6.17189 453.673ZM6.17188 6L5.17188 6L5.17189 459.006L6.17189 459.006L7.17189 459.006L7.17188 6L6.17188 6Z" fill="#2B4162"/>
</svg>
