<svg width="96" height="98" viewBox="0 0 96 98" fill="none" xmlns="http://www.w3.org/2000/svg">
<path d="M46.3348 2.74201L58.5937 16.6489C59.7507 17.9609 61.2114 18.9725 62.8505 19.5966C64.4895 20.2203 66.2574 20.4379 68.0019 20.2305L86.4871 18.0331C87.9926 17.8541 89.5173 18.0975 90.8887 18.7357C92.2602 19.3741 93.4237 20.3821 94.2478 21.6457C95.0719 22.9092 95.5239 24.378 95.5524 25.8861C95.5807 27.394 95.1846 28.8812 94.4089 30.179L84.8745 46.1212C83.9752 47.6246 83.4561 49.3222 83.3617 51.0673C83.2674 52.8126 83.601 54.5532 84.3333 56.1394L92.0975 72.9521C92.7303 74.3216 92.9643 75.8413 92.7737 77.3387C92.5831 78.8362 91.9752 80.2519 91.0191 81.4259C90.0629 82.5997 88.7964 83.4847 87.363 83.981C85.9295 84.477 84.3861 84.5647 82.9076 84.2334L64.7594 80.1713C63.0462 79.7881 61.2636 79.8255 59.5658 80.2804C57.8679 80.7354 56.3057 81.5942 55.0134 82.7828L41.3276 95.3747C40.2129 96.4009 38.8326 97.0966 37.3429 97.3838C35.8534 97.6707 34.3141 97.5375 32.8991 96.9991C31.4841 96.4604 30.2498 95.5383 29.336 94.3368C28.4222 93.1353 27.8653 91.7021 27.7283 90.1998L26.046 71.7575C25.8873 70.0176 25.3057 68.3434 24.3513 66.8791C23.397 65.415 22.0987 64.2043 20.5681 63.352L4.34003 54.3129C3.01938 53.577 1.93297 52.4876 1.20347 51.1679C0.473995 49.8482 0.130547 48.3508 0.211904 46.8447C0.293301 45.3387 0.796255 43.8839 1.66402 42.6452C2.53177 41.4065 3.72965 40.433 5.1224 39.8347L22.2296 32.4952C23.8444 31.8025 25.2666 30.7301 26.3742 29.3703C27.4814 28.0104 28.2408 26.4039 28.5865 24.6893L32.2496 6.51612C32.5473 5.03516 33.2555 3.66548 34.2938 2.56216C35.3322 1.45887 36.6595 0.665914 38.1252 0.273174C39.5909 -0.119566 41.1368 -0.0964768 42.5877 0.339822C44.0386 0.776146 45.3366 1.60828 46.3348 2.74201Z" fill="#F9CD39"/>
</svg>
