<svg width="20" height="20" viewBox="0 0 20 20" fill="none" xmlns="http://www.w3.org/2000/svg">
<path d="M9.60416 1.91251C9.64068 1.83873 9.69709 1.77662 9.76704 1.7332C9.83698 1.68977 9.91767 1.66676 9.99999 1.66676C10.0823 1.66676 10.163 1.68977 10.233 1.7332C10.3029 1.77662 10.3593 1.83873 10.3958 1.91251L12.3208 5.81167C12.4476 6.06831 12.6348 6.29035 12.8663 6.45872C13.0979 6.62709 13.3668 6.73677 13.65 6.77834L17.955 7.40834C18.0366 7.42016 18.1132 7.45457 18.1762 7.50767C18.2393 7.56078 18.2862 7.63047 18.3117 7.70885C18.3372 7.78723 18.3402 7.87118 18.3205 7.9512C18.3007 8.03123 18.259 8.10413 18.2 8.16167L15.0867 11.1933C14.8813 11.3934 14.7277 11.6404 14.639 11.913C14.5503 12.1857 14.5292 12.4757 14.5775 12.7583L15.3125 17.0417C15.3269 17.1232 15.3181 17.2071 15.2871 17.2839C15.2561 17.3607 15.2041 17.4272 15.1371 17.4758C15.0701 17.5245 14.9908 17.5533 14.9082 17.5591C14.8256 17.5648 14.7431 17.5472 14.67 17.5083L10.8217 15.485C10.5681 15.3519 10.286 15.2823 9.99958 15.2823C9.71318 15.2823 9.43106 15.3519 9.17749 15.485L5.32999 17.5083C5.25694 17.547 5.17449 17.5644 5.09204 17.5586C5.00958 17.5527 4.93043 17.5238 4.86357 17.4752C4.79672 17.4266 4.74485 17.3602 4.71387 17.2835C4.68289 17.2069 4.67404 17.1231 4.68833 17.0417L5.42249 12.7592C5.47099 12.4765 5.44998 12.1862 5.36128 11.9134C5.27257 11.6406 5.11883 11.3935 4.91333 11.1933L1.79999 8.16251C1.74049 8.10503 1.69832 8.032 1.6783 7.95174C1.65827 7.87147 1.66119 7.78719 1.68673 7.7085C1.71226 7.62981 1.75938 7.55988 1.82272 7.50666C1.88607 7.45345 1.96308 7.41909 2.04499 7.40751L6.34916 6.77834C6.63271 6.73709 6.90199 6.62756 7.13381 6.45916C7.36564 6.29077 7.55308 6.06857 7.67999 5.81167L9.60416 1.91251Z" fill="#F9CD39"/>
</svg>
