<svg width="15" height="16" viewBox="0 0 15 16" fill="none" xmlns="http://www.w3.org/2000/svg">
<path d="M7.46077 1.0187C7.48414 1.00173 7.51578 1.00173 7.53914 1.0187L9.34259 2.32898H11.5718C11.6006 2.32898 11.6262 2.34758 11.6352 2.37504L12.324 4.49509L14.1274 5.80536C14.1508 5.82234 14.1606 5.85243 14.1517 5.8799L13.4628 7.99995L14.1517 10.12C14.1606 10.1475 14.1508 10.1776 14.1274 10.1945L12.324 11.5048L11.6352 13.6249C11.6262 13.6523 11.6006 13.6709 11.5718 13.6709H9.34259L7.53914 14.9812C7.51578 14.9982 7.48414 14.9982 7.46077 14.9812L5.65733 13.6709H3.42819C3.3993 13.6709 3.37371 13.6523 3.36478 13.6249L2.67594 11.5048L0.872499 10.1945C0.849133 10.1776 0.839356 10.1475 0.848281 10.12L1.53712 7.99995L0.848281 5.8799C0.839356 5.85243 0.849133 5.82234 0.872499 5.80536L2.67594 4.49509L3.36478 2.37504C3.37371 2.34757 3.3993 2.32898 3.42819 2.32898H5.65736L7.46077 1.0187Z" fill="#6987F0" stroke="#6987F0" stroke-width="0.666667" stroke-miterlimit="10"/>
<path d="M5.15546 7.81242L6.79637 9.45334C6.82241 9.47937 6.86462 9.47937 6.89065 9.45334L9.84448 6.49951" fill="#6987F0"/>
<path d="M5.15546 7.81242L6.79637 9.45334C6.82241 9.47937 6.86462 9.47937 6.89065 9.45334L9.84448 6.49951" stroke="white" stroke-miterlimit="10" stroke-linecap="round"/>
</svg>
