<svg width="317" height="230" viewBox="0 0 317 230" fill="none" xmlns="http://www.w3.org/2000/svg">
<path d="M64.4208 80.7181C73.3042 80.7181 81.7669 82.5579 89.4663 85.8838C91.2505 38.1444 129.648 0 176.763 0C223.055 0 260.932 36.8234 263.933 83.391C293.976 88.0513 317 114.576 317 146.602C317 181.915 289.01 210.541 254.482 210.541C238.285 210.541 223.526 204.24 212.42 193.905C206.088 214.812 187.032 230 164.507 230C139.67 230 119.062 211.53 115.068 187.29C103.273 202.626 84.9781 212.486 64.42 212.486C28.8422 212.486 0 182.989 0 146.602C0 110.216 28.843 80.7181 64.4208 80.7181Z" fill="white"/>
</svg>
