<svg width="353" height="254" viewBox="0 0 353 254" fill="none" xmlns="http://www.w3.org/2000/svg">
<path d="M71.7367 89.1409C81.629 89.1409 91.0527 91.1726 99.6265 94.8456C101.613 42.1247 144.371 0 196.837 0C248.387 0 290.564 40.6659 293.906 92.0927C327.361 97.2392 353 126.532 353 161.9C353 200.897 321.831 232.51 283.383 232.51C265.345 232.51 248.91 225.552 236.544 214.138C229.492 237.228 208.273 254 183.19 254C155.531 254 132.583 233.603 128.136 206.833C115.002 223.769 94.6286 234.659 71.7358 234.659C32.1176 234.659 0 202.083 0 161.9C0 121.717 32.1186 89.1409 71.7367 89.1409Z" fill="white"/>
</svg>
